<svg width="44" height="44" viewBox="0 0 44 44" fill="none" xmlns="http://www.w3.org/2000/svg">
<circle cx="22" cy="22" r="22" fill="#E84142"/>
<path d="M13.0773 29.8307H16.6737C17.5205 29.8307 17.9438 29.8307 18.3217 29.7261C18.7359 29.6029 19.1138 29.3845 19.4279 29.084C19.7164 28.8092 19.9246 28.4449 20.3352 27.7262L20.3475 27.7047L25.012 19.4592C25.4263 18.7354 25.6311 18.3712 25.7222 17.9888C25.8223 17.5745 25.8223 17.1375 25.7222 16.7232C25.6318 16.3437 25.4248 15.9821 25.0167 15.2691L23.1819 12.0661C22.804 11.4014 22.6128 11.0691 22.3716 10.9462C22.1121 10.8142 21.8025 10.8142 21.543 10.9462C21.3017 11.0691 21.1105 11.4014 20.7327 12.0661L11.8527 27.7183C11.4794 28.3739 11.2927 28.7018 11.3064 28.9702C11.3246 29.2617 11.4748 29.5257 11.7206 29.6851C11.9483 29.8307 12.3215 29.8307 13.0773 29.8307Z" fill="white"/>
<path d="M30.9091 29.8307H25.7558C24.9956 29.8307 24.6132 29.8307 24.3901 29.6851C24.1443 29.5257 23.9941 29.2572 23.9758 28.9658C23.9623 28.6993 24.1504 28.3746 24.5269 27.7247L24.5358 27.7093L27.1079 23.2935C27.4858 22.6425 27.677 22.3193 27.9137 22.1963C28.1731 22.0643 28.4783 22.0643 28.7376 22.1963C28.9727 22.316 29.1557 22.6255 29.5181 23.2383L29.548 23.2889L32.1293 27.7048C32.1419 27.7265 32.1542 27.7479 32.1666 27.769C32.5243 28.3864 32.707 28.7015 32.6939 28.9614C32.6801 29.2525 32.5254 29.5213 32.2796 29.6807C32.0518 29.8307 31.6694 29.8307 30.9091 29.8307Z" fill="white"/>
</svg>
