<svg width="44" height="44" viewBox="0 0 44 44" fill="none" xmlns="http://www.w3.org/2000/svg">
<g clip-path="url(#clip0_869_28392)">
<path fill-rule="evenodd" clip-rule="evenodd" d="M22 0C34.1484 0 44 9.8516 44 22C44 34.1484 34.1484 44 22 44C9.8516 44 0 34.1484 0 22C0 9.8516 9.8516 0 22 0Z" fill="#0055D5"/>
<path fill-rule="evenodd" clip-rule="evenodd" d="M11.9686 14.5553C11.9686 14.5553 9.60144 12.6633 9.43864 17.3361C9.27584 20.9573 9.28024 27.9885 10.9566 31.3105C11.665 32.5601 12.611 32.1773 14.371 30.9321C15.9022 29.8013 21.4418 24.6973 23.787 22.4577C26.1322 20.2181 30.8886 13.7941 31.8786 18.1589C32.2702 19.9937 32.7542 21.5513 32.3846 25.6213C32.2702 26.8753 31.7334 27.8257 29.287 26.1273C27.439 24.9393 25.6834 23.6633 25.6834 23.6633C25.6834 23.6633 25.3446 23.0561 24.5438 24.0417C23.9146 24.8293 23.5978 25.0229 24.6054 25.6213C25.6174 26.2197 30.7346 29.7485 32.697 30.2985C34.3162 30.7693 35.2402 30.7605 35.2886 27.5793C35.2798 25.0537 35.1346 17.8245 34.215 14.7445C33.5198 12.8261 32.499 11.9549 30.2946 14.1109C28.0902 16.2669 21.1382 23.0077 17.3366 26.0613C14.8154 27.9533 13.7374 29.6605 12.787 26.5057C12.1182 24.1165 11.2514 16.6805 13.9882 18.0973C15.6998 18.9157 16.5534 18.9113 15.8846 19.4261C15.2158 19.9365 13.293 21.7009 13.293 21.7009C13.293 21.7009 12.699 22.1805 12.9762 23.2189C13.2534 23.9449 13.2534 24.3057 14.745 22.9021C16.2366 21.4985 17.3366 20.4381 17.3366 20.4381C17.3366 20.4381 17.5742 20.0641 18.2826 20.7549C18.991 21.4457 19.1054 21.6393 19.1054 21.6393C19.1054 21.6393 19.2946 22.1541 20.0514 21.2609C20.8126 20.3677 21.301 19.8221 19.8622 18.9861C18.4278 18.1413 11.9686 14.5553 11.9686 14.5553Z" fill="white"/>
</g>
<defs>
<clipPath id="clip0_869_28392">
<rect width="44" height="44" fill="white"/>
</clipPath>
</defs>
</svg>
