<svg width="44" height="44" viewBox="0 0 44 44" fill="none" xmlns="http://www.w3.org/2000/svg">
<g clip-path="url(#clip0_1643_12634)">
<circle cx="22" cy="22" r="22" fill="#E6007A"/>
<path d="M22 12.8333C26.0501 12.8333 29.3333 11.1917 29.3333 9.16667C29.3333 7.14162 26.0501 5.5 22 5.5C17.9499 5.5 14.6667 7.14162 14.6667 9.16667C14.6667 11.1917 17.9499 12.8333 22 12.8333Z" fill="white"/>
<path d="M22 38.5C26.0501 38.5 29.3333 36.8583 29.3333 34.8333C29.3333 32.8082 26.0501 31.1666 22 31.1666C17.9499 31.1666 14.6667 32.8082 14.6667 34.8333C14.6667 36.8583 17.9499 38.5 22 38.5Z" fill="white"/>
<path d="M13.3082 17.1639C15.1714 14.1295 15.2422 10.8881 13.4663 9.92401C11.6905 8.95991 8.74049 10.6382 6.87732 13.6726C5.01414 16.7069 4.94334 19.9483 6.71918 20.9124C8.49502 21.8765 11.445 20.1982 13.3082 17.1639Z" fill="white"/>
<path d="M36.9598 29.9135C38.823 26.8791 38.8938 23.6378 37.118 22.6737C35.3422 21.7096 32.3921 23.3878 30.5289 26.4222C28.6658 29.4566 28.595 32.6979 30.3708 33.662C32.1466 34.6261 35.0967 32.9478 36.9598 29.9135Z" fill="white"/>
<path d="M13.4663 34.076C15.2422 33.1119 15.1714 29.8705 13.3082 26.8361C11.445 23.8018 8.49502 22.1235 6.71918 23.0876C4.94334 24.0517 5.01414 27.2931 6.87732 30.3274C8.7405 33.3618 11.6905 35.0401 13.4663 34.076Z" fill="white"/>
<path d="M37.1179 21.3264C38.8937 20.3623 38.8229 17.1209 36.9598 14.0865C35.0966 11.0521 32.1466 9.37384 30.3708 10.338C28.5949 11.3021 28.6657 14.5435 30.5289 17.5778C32.3921 20.6122 35.342 22.2905 37.1179 21.3264Z" fill="white"/>
</g>
<defs>
<clipPath id="clip0_1643_12634">
<rect width="44" height="44" fill="white"/>
</clipPath>
</defs>
</svg>
