<svg width="44" height="44" viewBox="0 0 44 44" fill="none" xmlns="http://www.w3.org/2000/svg">
<path fill-rule="evenodd" clip-rule="evenodd" d="M22 0C26.3512 0 30.6047 1.29028 34.2225 3.70767C37.8404 6.12506 40.6602 9.56099 42.3253 13.581C43.9905 17.6009 44.4261 22.0244 43.5773 26.292C42.7284 30.5596 40.6331 34.4796 37.5563 37.5563C34.4796 40.6331 30.5596 42.7284 26.292 43.5773C22.0244 44.4261 17.6009 43.9905 13.581 42.3253C9.56099 40.6602 6.12506 37.8404 3.70767 34.2225C1.29028 30.6047 0 26.3512 0 22C0 16.1652 2.31785 10.5694 6.44365 6.44365C10.5694 2.31785 16.1652 0 22 0V0Z" fill="#0090FF"/>
<path fill-rule="evenodd" clip-rule="evenodd" d="M24.3834 19.3598L23.7234 22.8798L29.9934 23.7598L29.5534 25.4098L23.3934 24.5298C22.9534 25.9598 22.7334 27.4998 22.1834 28.8198C21.6334 30.3598 21.0834 31.8998 20.4234 33.3298C19.5434 35.1998 18.0034 36.5198 15.9134 36.8498C14.7034 37.0698 13.3834 36.9598 12.3934 36.1898C12.0634 35.9698 11.7334 35.5298 11.7334 35.1998C11.7334 34.7598 11.9534 34.2098 12.2834 33.9898C12.5034 33.8798 13.0534 33.9898 13.3834 34.0998C13.7134 34.4298 14.0434 34.8698 14.2634 35.3098C14.9234 36.1898 15.8034 36.2998 16.6834 35.6398C17.6734 34.7598 18.2234 33.5498 18.5534 32.3398C19.2134 29.6998 19.8734 27.1698 20.4234 24.5298V24.0898L14.5934 23.2098L14.8134 21.5598L20.8634 22.4398L21.6334 19.0298L15.3634 18.0398L15.5834 16.2798L22.0734 17.1598C22.2934 16.4998 22.4034 15.9498 22.6234 15.3998C23.1734 13.4198 23.7234 11.4398 25.0434 9.67979C26.3634 7.91979 27.9034 6.81979 30.2134 6.92979C31.2034 6.92979 32.1934 7.25979 32.8534 8.02979C32.9634 8.13979 33.1834 8.35979 33.1834 8.57979C33.1834 9.01979 33.1834 9.56979 32.8534 9.89979C32.4134 10.2298 31.8634 10.1198 31.4234 9.67979C31.0934 9.34979 30.8734 9.01979 30.5434 8.68979C29.8834 7.80979 28.8934 7.69979 28.1234 8.46979C27.5734 9.01979 27.0234 9.78979 26.6934 10.5598C25.9234 12.8698 25.3734 15.2898 24.6034 17.7098L30.6534 18.5898L30.2134 20.2398L24.3834 19.3598Z" fill="white"/>
</svg>
