<svg width="44" height="44" viewBox="0 0 44 44" fill="none" xmlns="http://www.w3.org/2000/svg">
<g clip-path="url(#clip0_869_28382)">
<path d="M22 44C34.1503 44 44 34.1503 44 22C44 9.84974 34.1503 0 22 0C9.84974 0 0 9.84974 0 22C0 34.1503 9.84974 44 22 44Z" fill="white"/>
<path d="M22 5.83984L19.034 7.54584L10.954 12.2158L8 13.9198V30.0798L10.964 31.7838L19.12 36.4558L22.084 38.1598L25.05 36.4558L33.05 31.7838L36.014 30.0798V13.9198L33.05 12.2158L24.97 7.54584L22 5.83984ZM13.92 26.6698V17.3298L22 12.6598L30.08 17.3298V26.6698L22 31.3398L13.92 26.6698Z" fill="#2A5ADA"/>
</g>
<defs>
<clipPath id="clip0_869_28382">
<rect width="44" height="44" fill="white"/>
</clipPath>
</defs>
</svg>
