<svg width="44" height="44" viewBox="0 0 44 44" fill="none" xmlns="http://www.w3.org/2000/svg">
<path d="M22 44C34.1503 44 44 34.1503 44 22C44 9.84974 34.1503 0 22 0C9.84974 0 0 9.84974 0 22C0 34.1503 9.84974 44 22 44Z" fill="#345D9C"/>
<path d="M20.8589 28.396L22.6107 22.4888L25.3402 21.7147L25.9105 19.7593L23.2217 20.574L26.0735 10.8781V10.7233C26.0714 10.6612 26.0571 10.6002 26.0314 10.5436C26.0056 10.4871 25.969 10.4362 25.9236 10.3938C25.8782 10.3514 25.8249 10.3184 25.7668 10.2967C25.7086 10.2749 25.6467 10.2648 25.5846 10.267H21.9588C21.8216 10.2628 21.6868 10.3046 21.5761 10.3858C21.4653 10.467 21.385 10.583 21.3477 10.7151L17.9664 22.2036L15.2776 23.0184L14.6665 24.8924L17.3553 24.0776L14.9517 32.2662H29.2919C29.4295 32.2719 29.5649 32.2306 29.676 32.1492C29.787 32.0678 29.8671 31.951 29.903 31.8181L30.7178 29.0071V28.8523C30.7157 28.7902 30.7013 28.7291 30.6756 28.6726C30.6499 28.6161 30.6133 28.5652 30.5679 28.5228C30.5225 28.4804 30.4692 28.4474 30.411 28.4256C30.3529 28.4039 30.291 28.3938 30.2289 28.396H20.8589Z" fill="white"/>
</svg>
