<svg width="44" height="44" viewBox="0 0 44 44" fill="none" xmlns="http://www.w3.org/2000/svg">
<g clip-path="url(#clip0_869_28396)">
<path d="M22 44C34.1503 44 44 34.1503 44 22C44 9.84974 34.1503 0 22 0C9.84974 0 0 9.84974 0 22C0 34.1503 9.84974 44 22 44Z" fill="#FF0420"/>
<path d="M15.5866 27.8434C14.2754 27.8434 13.2018 27.5354 12.3658 26.9194C11.5386 26.2946 11.125 25.397 11.125 24.2442C11.125 23.9978 11.1514 23.7074 11.2042 23.3554C11.345 22.5634 11.5474 21.613 11.8114 20.4954C12.5594 17.4682 14.4954 15.9546 17.6106 15.9546C18.4554 15.9546 19.221 16.0954 19.8898 16.3858C20.5586 16.6586 21.0866 17.081 21.4738 17.6442C21.861 18.1986 22.0546 18.8586 22.0546 19.6242C22.0546 19.853 22.0282 20.1434 21.9754 20.4954C21.8082 21.4722 21.6146 22.4314 21.377 23.3554C20.9898 24.8602 20.3298 25.9954 19.3794 26.7434C18.4378 27.4826 17.1706 27.8434 15.5866 27.8434ZM15.8242 25.4674C16.4402 25.4674 16.9594 25.2826 17.3906 24.9218C17.8306 24.561 18.1474 24.0066 18.3322 23.2498C18.5874 22.2114 18.781 21.3138 18.913 20.5394C18.957 20.3106 18.9834 20.073 18.9834 19.8266C18.9834 18.8234 18.4642 18.3218 17.417 18.3218C16.801 18.3218 16.273 18.5066 15.833 18.8674C15.4018 19.2282 15.0938 19.7826 14.909 20.5394C14.7066 21.2786 14.513 22.1762 14.3106 23.2498C14.2666 23.4698 14.2402 23.6986 14.2402 23.945C14.2314 24.9658 14.7682 25.4674 15.8242 25.4674Z" fill="white"/>
<path d="M22.8176 27.6848C22.6944 27.6848 22.6064 27.6496 22.536 27.5704C22.4832 27.4824 22.4656 27.3856 22.4832 27.2712L24.7624 16.5352C24.78 16.412 24.8416 16.3152 24.9472 16.236C25.044 16.1568 25.1496 16.1216 25.264 16.1216H29.6552C30.8784 16.1216 31.8552 16.3768 32.5944 16.8784C33.3424 17.3888 33.7208 18.1192 33.7208 19.0784C33.7208 19.3512 33.6856 19.6416 33.624 19.9408C33.3512 21.208 32.7968 22.1408 31.952 22.748C31.1248 23.3552 29.9896 23.6544 28.5464 23.6544H26.32L25.5632 27.2712C25.5368 27.3944 25.484 27.4912 25.3784 27.5704C25.2816 27.6496 25.176 27.6848 25.0616 27.6848H22.8176ZM28.6608 21.3752C29.1272 21.3752 29.5232 21.252 29.8664 20.9968C30.2184 20.7416 30.4472 20.3808 30.5616 19.9056C30.5968 19.7208 30.6144 19.5536 30.6144 19.4128C30.6144 19.096 30.5176 18.8496 30.3328 18.6824C30.148 18.5064 29.8224 18.4184 29.3736 18.4184H27.3936L26.7688 21.3752H28.6608Z" fill="white"/>
</g>
<defs>
<clipPath id="clip0_869_28396">
<rect width="44" height="44" fill="white"/>
</clipPath>
</defs>
</svg>
