<svg width="44" height="44" viewBox="0 0 44 44" fill="none" xmlns="http://www.w3.org/2000/svg">
<g clip-path="url(#clip0_869_28389)">
<path d="M22 44C34.1503 44 44 34.1503 44 22C44 9.84974 34.1503 0 22 0C9.84974 0 0 9.84974 0 22C0 34.1503 9.84974 44 22 44Z" fill="#1CC9FF"/>
<path d="M14.6065 10.3839L12.2305 12.7599V22.1759L14.6065 24.5519H24.0225V29.3039H19.3585V26.9279H12.2305V31.6799L14.6065 34.0559H28.7745L31.1505 31.6799V22.1759L28.7745 19.7999H19.3585V15.0479H24.1105V17.4239H31.2385V12.6719L28.8625 10.2959H14.6065V10.3839Z" fill="white"/>
</g>
<defs>
<clipPath id="clip0_869_28389">
<rect width="44" height="44" fill="white"/>
</clipPath>
</defs>
</svg>
