<svg width="72" height="72" viewBox="0 0 72 72" fill="none" xmlns="http://www.w3.org/2000/svg">
<g clip-path="url(#clip0_943_28348)">
<mask id="mask0_943_28348" style="mask-type:luminance" maskUnits="userSpaceOnUse" x="0" y="0" width="72" height="72">
<path d="M72 0H0V72H72V0Z" fill="white"/>
</mask>
<g mask="url(#mask0_943_28348)">
<path d="M36 72C55.8823 72 72 55.8823 72 36C72 16.1177 55.8823 0 36 0C16.1177 0 0 16.1177 0 36C0 55.8823 16.1177 72 36 72Z" fill="url(#paint0_linear_943_28348)"/>
<path d="M51.7564 50.3443L39.5832 20.9133C38.8966 19.3917 37.876 18.6494 36.5306 18.6494H35.4543C34.1089 18.6494 33.0883 19.3917 32.4017 20.9133L27.1038 33.736H23.0955C21.8986 33.7453 20.9244 34.7102 20.9151 35.9164V35.9443C20.9244 37.1412 21.8986 38.1154 23.0955 38.1247H25.2481L20.1914 50.3443C20.0986 50.6133 20.043 50.8917 20.043 51.1793C20.043 51.8659 20.2564 52.4041 20.6368 52.8216C21.0172 53.2391 21.5646 53.4432 22.2512 53.4432C22.7059 53.434 23.1419 53.2948 23.5038 53.0257C23.8935 52.7566 24.1626 52.3669 24.376 51.9216L29.943 38.1154H33.8028C34.9997 38.1061 35.9739 37.1412 35.9832 35.935V35.8793C35.9739 34.6824 34.9997 33.7082 33.8028 33.6989H31.743L35.9925 23.1123L47.5718 51.9123C47.7852 52.3577 48.0543 52.7474 48.444 53.0164C48.8059 53.2855 49.2512 53.4247 49.6966 53.434C50.3832 53.434 50.9213 53.2298 51.311 52.8123C51.7007 52.3948 51.9048 51.8566 51.9048 51.17C51.9141 50.8917 51.8677 50.6041 51.7564 50.3443Z" fill="white"/>
</g>
</g>
<defs>
<linearGradient id="paint0_linear_943_28348" x1="62.8411" y1="13.4152" x2="9.27308" y2="58.4872" gradientUnits="userSpaceOnUse">
<stop stop-color="#B6509E"/>
<stop offset="1" stop-color="#2EBAC6"/>
</linearGradient>
<clipPath id="clip0_943_28348">
<rect width="72" height="72" fill="white"/>
</clipPath>
</defs>
</svg>
