<svg width="44" height="44" viewBox="0 0 44 44" fill="none" xmlns="http://www.w3.org/2000/svg">
<g clip-path="url(#clip0_869_28385)">
<circle cx="22" cy="22" r="22" fill="#EEEEEE"/>
<path d="M19.2329 13.9033C18.9137 13.8577 18.8985 13.8425 19.0505 13.8273C19.3393 13.7817 20.0081 13.8425 20.4793 13.9489C21.5737 14.2073 22.5617 14.8761 23.6105 16.0466L23.8842 16.3658L24.2794 16.305C25.9666 16.0314 27.6994 16.2442 29.1434 16.913C29.5387 17.0954 30.1619 17.4602 30.2379 17.5514C30.2683 17.5818 30.3139 17.7794 30.3443 17.977C30.4507 18.6914 30.4051 19.2234 30.1771 19.6338C30.0555 19.8618 30.0555 19.9226 30.1315 20.1202C30.1923 20.2722 30.3747 20.3786 30.5419 20.3786C30.9067 20.3786 31.2867 19.801 31.4691 18.9954L31.5451 18.6762L31.6819 18.8282C32.4571 19.6946 33.0651 20.8955 33.1563 21.7467L33.1867 21.9747L33.0499 21.7771C32.8219 21.4275 32.6091 21.1995 32.3203 21.0019C31.8035 20.6523 31.2563 20.5459 29.8123 20.4699C28.505 20.3938 27.7602 20.2874 27.0306 20.0442C25.7842 19.6338 25.1458 19.1018 23.6713 17.141C23.0177 16.2746 22.6073 15.8034 22.1969 15.4082C21.3001 14.5417 20.4033 14.0857 19.2329 13.9033Z" fill="#FF007A"/>
<path d="M30.5568 15.8337C30.5872 15.2561 30.6632 14.8761 30.8304 14.5265C30.8912 14.3897 30.952 14.2681 30.9672 14.2681C30.9824 14.2681 30.952 14.3745 30.9064 14.4961C30.7848 14.8305 30.7696 15.3017 30.8456 15.8337C30.952 16.5177 30.9976 16.6089 31.7272 17.3537C32.0617 17.7033 32.4569 18.1441 32.6089 18.3265L32.8673 18.6609L32.6089 18.4177C32.2897 18.1137 31.56 17.5361 31.3928 17.4601C31.2864 17.3993 31.2712 17.3993 31.1952 17.4753C31.1344 17.5361 31.1192 17.6273 31.1192 18.0681C31.104 18.7521 31.0128 19.1778 30.7848 19.6186C30.6632 19.8466 30.648 19.801 30.7544 19.5426C30.8304 19.345 30.8456 19.2538 30.8456 18.6001C30.8456 17.2777 30.6936 16.9585 29.7664 16.4265C29.5384 16.2897 29.1432 16.0921 28.9152 15.9857C28.672 15.8793 28.4896 15.7881 28.5048 15.7881C28.5352 15.7577 29.432 16.0161 29.7816 16.1681C30.3136 16.3809 30.4048 16.3961 30.4656 16.3809C30.5112 16.3353 30.5416 16.2137 30.5568 15.8337Z" fill="#FF007A"/>
<path d="M19.857 18.099C19.2186 17.2174 18.8082 15.8493 18.8994 14.8309L18.9298 14.5117L19.0818 14.5421C19.3554 14.5877 19.8266 14.7701 20.0546 14.9069C20.6626 15.2717 20.9362 15.7733 21.1946 17.0198C21.2706 17.3846 21.377 17.8102 21.4226 17.947C21.4986 18.175 21.7874 18.707 22.0306 19.0414C22.1978 19.2846 22.0914 19.4062 21.7114 19.3758C21.1338 19.315 20.3586 18.783 19.857 18.099Z" fill="#FF007A"/>
<path d="M29.7807 24.7108C26.7711 23.4947 25.707 22.4459 25.707 20.6675C25.707 20.4091 25.7222 20.1963 25.7222 20.1963C25.7374 20.1963 25.8438 20.2875 25.9806 20.3939C26.5886 20.8803 27.2727 21.0931 29.1727 21.3667C30.2823 21.5339 30.9207 21.6555 31.4983 21.8531C33.3376 22.4611 34.4776 23.7076 34.7512 25.3948C34.8272 25.8812 34.7816 26.8084 34.66 27.2948C34.5536 27.6748 34.2496 28.374 34.1736 28.3892C34.1584 28.3892 34.128 28.3132 34.128 28.1916C34.0976 27.5532 33.7784 26.9452 33.2464 26.474C32.608 25.9268 31.7871 25.5164 29.7807 24.7108Z" fill="#FF007A"/>
<path d="M27.6529 25.2126C27.6225 24.9846 27.5465 24.6958 27.5009 24.5742L27.4249 24.3462L27.5617 24.5134C27.7593 24.7414 27.9113 25.015 28.0481 25.395C28.1545 25.6838 28.1545 25.775 28.1545 26.2462C28.1545 26.7022 28.1393 26.8086 28.0481 27.067C27.8961 27.4774 27.7137 27.7663 27.4097 28.0855C26.8625 28.6479 26.1481 28.9519 25.1297 29.0887C24.9473 29.1039 24.4305 29.1495 23.9745 29.1799C22.8344 29.2407 22.0744 29.3623 21.3904 29.6055C21.2992 29.6359 21.208 29.6663 21.1928 29.6511C21.1624 29.6207 21.6336 29.3471 22.0136 29.1647C22.5456 28.9063 23.0928 28.7695 24.2937 28.5567C24.8865 28.4655 25.4945 28.3439 25.6465 28.2831C27.1513 27.8119 27.8961 26.6414 27.6529 25.2126Z" fill="#FF007A"/>
<path d="M29.0377 27.6599C28.6425 26.7934 28.5513 25.9726 28.7641 25.1974C28.7945 25.1214 28.8249 25.0454 28.8553 25.0454C28.8857 25.0454 28.9769 25.091 29.0681 25.1518C29.2505 25.2734 29.6305 25.4862 30.6033 26.0182C31.8345 26.687 32.5337 27.2038 33.0201 27.7967C33.4458 28.3135 33.7042 28.9063 33.8258 29.6359C33.9018 30.0463 33.8562 31.0343 33.7498 31.4447C33.4154 32.7367 32.6553 33.7704 31.5457 34.3632C31.3785 34.4544 31.2417 34.5152 31.2265 34.5152C31.2113 34.5152 31.2721 34.3632 31.3633 34.1808C31.7281 33.4056 31.7737 32.6607 31.5001 31.8247C31.3329 31.3079 30.9833 30.6847 30.2841 29.6359C29.4481 28.4199 29.2505 28.1007 29.0377 27.6599Z" fill="#FF007A"/>
<path d="M17.7137 32.3112C18.8386 31.3688 20.2218 30.7 21.4986 30.4872C22.0458 30.396 22.9578 30.4264 23.4594 30.5632C24.2651 30.776 24.9947 31.232 25.3747 31.7944C25.7395 32.3416 25.9067 32.8128 26.0739 33.8617C26.1347 34.2721 26.2107 34.6977 26.2259 34.7889C26.3475 35.3361 26.5907 35.7617 26.8947 35.9897C27.3659 36.3393 28.1867 36.3545 28.9923 36.0505C29.1291 36.0049 29.2507 35.9593 29.2507 35.9745C29.2811 36.0049 28.8707 36.2785 28.5971 36.4153C28.2171 36.6129 27.9131 36.6737 27.5027 36.6737C26.7731 36.6737 26.1499 36.2937 25.6483 35.5337C25.5419 35.3817 25.3291 34.9409 25.1467 34.5305C24.6147 33.2992 24.3411 32.9344 23.7178 32.524C23.1706 32.1744 22.4714 32.0984 21.9394 32.3568C21.2402 32.6912 21.0578 33.588 21.5442 34.1353C21.7418 34.3633 22.1066 34.5457 22.4106 34.5913C22.973 34.6673 23.4594 34.2265 23.4594 33.6641C23.4594 33.2992 23.3226 33.0864 22.9578 32.9192C22.4714 32.7064 21.9394 32.9496 21.9546 33.4208C21.9546 33.6184 22.0458 33.7401 22.2434 33.8313C22.365 33.8921 22.365 33.8921 22.2738 33.8769C21.833 33.7857 21.7266 33.2384 22.0762 32.8888C22.5018 32.4632 23.3986 32.6456 23.7026 33.2384C23.8242 33.4816 23.8394 33.9681 23.733 34.2721C23.4746 34.9409 22.745 35.2905 22.0002 35.0929C21.4986 34.9561 21.2858 34.8193 20.6778 34.1961C19.6138 33.1016 19.2034 32.8888 17.6833 32.6608L17.3945 32.6152L17.7137 32.3112Z" fill="#FF007A"/>
<path fill-rule="evenodd" clip-rule="evenodd" d="M9.7167 7.85381C13.2584 12.1555 18.7153 18.8436 18.9889 19.2084C19.2169 19.5124 19.1257 19.8012 18.7457 20.014C18.5329 20.1356 18.0921 20.2572 17.8793 20.2572C17.636 20.2572 17.3472 20.1356 17.1496 19.938C17.0128 19.8012 16.42 18.9348 15.0824 16.8524C14.064 15.2563 13.1976 13.9339 13.1824 13.9187C13.1216 13.8883 13.1216 13.8883 14.976 17.202C16.1464 19.2844 16.5264 20.0292 16.5264 20.1204C16.5264 20.318 16.4656 20.4244 16.2224 20.698C15.812 21.154 15.6296 21.6709 15.4928 22.7501C15.3408 23.9509 14.9304 24.8021 13.76 26.2461C13.076 27.0974 12.9696 27.2494 12.8024 27.599C12.5896 28.0246 12.5288 28.2678 12.4984 28.815C12.468 29.3926 12.5288 29.7574 12.696 30.3046C12.848 30.791 13.0152 31.1102 13.4256 31.7334C13.7752 32.2806 13.988 32.6911 13.988 32.8431C13.988 32.9647 14.0184 32.9647 14.5656 32.8431C15.8728 32.5391 16.952 32.0222 17.5448 31.3838C17.9097 30.9886 18.0009 30.7758 18.0009 30.2286C18.0009 29.879 17.9857 29.803 17.8945 29.5902C17.7425 29.2558 17.4536 28.9822 16.8304 28.5566C16.0096 27.9942 15.66 27.5382 15.5688 26.9302C15.4928 26.4133 15.584 26.0637 16.04 25.1061C16.5112 24.1181 16.6328 23.7077 16.7088 22.7045C16.7544 22.0661 16.8304 21.8077 17.0128 21.6101C17.2104 21.3973 17.3776 21.3213 17.8489 21.2604C18.6241 21.154 19.1257 20.9564 19.5209 20.5764C19.8705 20.2572 20.0225 19.938 20.0377 19.4668L20.0529 19.1172L19.8553 18.9044C19.1409 18.0836 9.2455 7.2002 9.19989 7.2002C9.18469 7.2002 9.4279 7.489 9.7167 7.85381ZM14.3832 29.4686C14.5504 29.1798 14.4592 28.815 14.1856 28.6326C13.9272 28.4654 13.532 28.5414 13.532 28.7694C13.532 28.8302 13.5624 28.891 13.6536 28.9214C13.7904 28.9974 13.8056 29.0734 13.6992 29.2406C13.5928 29.4078 13.5928 29.5598 13.7296 29.6662C13.9424 29.8334 14.2312 29.7422 14.3832 29.4686Z" fill="#FF007A"/>
<path fill-rule="evenodd" clip-rule="evenodd" d="M20.5393 21.4732C20.1745 21.5796 19.8249 21.9748 19.7185 22.37C19.6577 22.6132 19.6881 23.054 19.7945 23.1908C19.9617 23.4036 20.1137 23.4644 20.5393 23.4644C21.3753 23.4644 22.0897 23.0996 22.1657 22.6588C22.2417 22.294 21.9225 21.7924 21.4817 21.5644C21.2537 21.4428 20.7825 21.3972 20.5393 21.4732ZM21.5121 22.2332C21.6337 22.0508 21.5881 21.8532 21.3601 21.7164C20.9497 21.458 20.3265 21.6708 20.3265 22.066C20.3265 22.2636 20.6457 22.4764 20.9497 22.4764C21.1473 22.4764 21.4209 22.3548 21.5121 22.2332Z" fill="#FF007A"/>
</g>
<defs>
<clipPath id="clip0_869_28385">
<rect width="44" height="44" fill="white"/>
</clipPath>
</defs>
</svg>
