<svg width="44" height="44" viewBox="0 0 44 44" fill="none" xmlns="http://www.w3.org/2000/svg">
<g clip-path="url(#clip0_869_28387)">
<circle cx="22" cy="22" r="22" fill="#EEEEEE"/>
<path d="M13.61 24.8824L14.5299 17.9707L6.55078 12.4316L13.8412 14.9011L15.563 12.2594L21.8498 8.3584L35.7076 15.9932L36.4258 27.6421L30.252 36.2214L25.3721 36.9691L27.8957 32.3499V27.9028L26.0608 24.4298L24.1964 23.195L21.3284 26.1516V29.2802L19.0901 31.3759L16.2468 31.7202L14.9874 32.4335L12.9213 31.7743L12.0604 28.6752L13.61 26.4959V24.8824Z" fill="#EEEEEE"/>
<path d="M26.3516 12.3726C24.8315 12.0578 23.1688 12.1414 23.1688 12.1414C23.1688 12.1414 22.6228 14.665 19.2383 15.3291C19.2629 15.3291 23.7099 16.8492 26.3516 12.3726Z" fill="#94A6C3"/>
<path d="M27.7285 35.272C29.5634 33.8356 30.9408 31.858 31.5754 29.6197C31.6049 29.5361 31.8607 29.3885 32.0329 29.2754C32.3182 29.1032 32.6085 28.9605 32.6626 28.7293C32.7757 28.0701 32.8348 27.3814 32.8348 26.6927C32.8348 26.4369 32.574 26.1762 32.3182 25.9204C32.1165 25.7482 31.9148 25.5465 31.9148 25.4039C31.6295 22.7917 30.4243 20.3517 28.5008 18.5758L28.2991 18.7775C30.1636 20.5288 31.3688 22.9098 31.6295 25.4334C31.659 25.6646 31.8853 25.8909 32.1165 26.1221C32.3182 26.2943 32.5494 26.555 32.5494 26.6681C32.5494 27.3273 32.4904 27.9865 32.3773 28.6457C32.3477 28.7588 32.0919 28.8769 31.8902 28.99C31.6049 29.1327 31.3442 29.2754 31.2901 29.5066C30.6014 31.9465 29.0223 34.0717 26.9267 35.4491C27.3005 34.6472 28.4762 32.0351 29.1059 30.7118L28.9928 26.4664L25.3476 22.9393L23.2814 23.2246L21.0136 26.8993C21.0136 26.8993 22.0762 28.2472 20.5807 29.8263C19.1197 31.3759 17.9686 31.7203 17.9686 31.7203L16.906 31.1447C17.2208 30.7413 17.8554 30.1412 18.3425 29.7378C19.1738 29.0491 20.0052 28.99 20.0052 28.2472C20.0396 26.6927 18.372 27.1207 18.372 27.1207L17.7669 27.6963L17.5111 29.8214L16.2517 31.4005L16.1091 31.371L14.043 30.9135C14.043 30.9135 15.3072 30.2543 15.5089 29.5066C15.7106 28.7883 15.1055 26.4074 15.076 26.2647C15.1055 26.2943 15.6811 26.7813 15.9369 27.5831C16.3944 26.3188 16.9995 25.1136 17.1717 25.0005C17.3438 24.8873 19.6657 23.6526 19.6657 23.6526L18.8934 25.6892L19.469 25.3743L20.8464 21.9899C20.8464 21.9899 22.1943 21.3307 23.1978 21.3307C25.0032 21.3011 27.6744 19.0924 26.4692 15.1323C26.8135 15.275 32.7806 18.261 33.8137 24.115C34.586 28.6162 32.0329 32.832 27.7285 35.272Z" fill="#94A6C3"/>
<path d="M20.8999 13.0021C21.5591 12.2248 21.3032 11.0786 21.3032 11.0786L19.3798 13.922C19.3503 13.922 20.0636 13.9515 20.8999 13.0021Z" fill="#1B314F"/>
<path d="M14.4401 28.5275L14.6713 27.3813C14.6713 27.3813 13.7219 29.0441 13.6383 29.2753C13.5497 29.536 13.6973 29.9935 14.0663 29.964C14.4401 29.9345 14.8976 29.3884 14.8976 28.99C14.8976 28.4734 14.4401 28.5275 14.4401 28.5275Z" fill="#1B314F"/>
<path d="M31.9051 9.7919C31.9051 9.7919 33.3642 9.85188 34.8783 10.0269C31.4653 7.34233 28.2323 6.55747 25.6088 6.55747C21.996 6.55747 19.5474 8.04721 19.3975 8.13219L20.5368 6.32252C20.5368 6.32252 15.9895 5.88259 14.3855 10.6967C13.9757 9.67692 13.601 8.18718 13.601 8.18718C13.601 8.18718 11.2374 10.2618 12.3467 13.7012C9.63331 12.7114 5.76061 11.3366 5.6107 11.3116C5.40582 11.2816 5.34586 11.3716 5.34586 11.3716C5.34586 11.3716 5.2859 11.4566 5.46079 11.6066C5.7856 11.8615 11.907 16.3857 13.2512 17.2606C12.9613 18.3104 12.9613 18.8053 13.2512 19.3002C13.6609 19.9701 13.6859 20.32 13.6309 20.8149C13.571 21.3098 13.0463 25.5991 12.9314 26.124C12.8164 26.6489 11.5921 28.5136 11.6471 29.0685C11.7071 29.6234 12.4616 31.9829 13.1362 32.2479C13.6309 32.4229 14.8552 32.8028 15.6697 32.8028C15.9596 32.8028 16.2244 32.7428 16.3393 32.6278C16.834 32.1929 16.9789 32.1029 17.3287 32.1029C17.3587 32.1029 17.3887 32.1029 17.4137 32.1029C17.5586 32.1029 17.7335 32.1329 17.9384 32.1329C18.4031 32.1329 19.0177 32.0429 19.4525 31.638C20.0921 30.9981 21.2014 30.1233 21.5512 29.7133C21.991 29.1584 22.2208 28.4036 22.1059 27.6437C22.016 26.9438 22.3957 26.3289 22.8355 25.719C23.3901 24.9892 24.4095 23.6794 24.4095 23.6794C26.4233 25.1891 27.6776 27.4937 27.6776 30.0583C27.6776 34.6075 23.7149 38.2818 18.8179 38.2818C18.0583 38.2818 17.3337 38.1968 16.6042 38.0218C18.8478 38.8067 20.7417 39.0717 22.2908 39.0717C25.5838 39.0717 27.3328 37.8769 27.3328 37.8769C27.3328 37.8769 26.7232 38.6667 25.7287 39.5666C25.7587 39.5666 25.7587 39.5666 25.7587 39.5666C31.2105 38.8067 33.8639 34.3175 33.8639 34.3175C33.8639 34.3175 33.659 35.7773 33.3992 36.7671C40.6499 31.313 39.4256 24.4893 39.3956 24.2593C39.4556 24.3443 40.1852 25.2191 40.5599 25.6891C41.7292 13.6712 31.9051 9.7919 31.9051 9.7919ZM20.7417 28.9835C20.6268 29.1284 20.1321 29.5684 19.7823 29.8883C19.4325 30.2082 19.0527 30.5282 18.7629 30.8231C18.648 30.9381 18.4131 30.9981 18.0633 30.9981C17.9484 30.9981 17.8284 30.9981 17.7435 30.9981C17.6835 30.9981 17.6286 30.9981 17.5686 30.9981C17.5086 30.9981 17.4787 30.9981 17.4537 30.9981C17.3637 30.9981 17.2788 30.9981 17.1888 30.9981C17.6286 30.4132 18.9078 29.0734 19.3475 28.7835C19.8722 28.4336 20.1371 28.0836 19.8123 27.4737C19.4925 26.8588 18.648 27.0088 18.648 27.0088C18.648 27.0088 19.1427 26.8039 19.5824 26.8039C19.0277 26.6589 18.3281 26.8039 18.0083 27.1238C17.6585 27.4437 17.7185 28.5835 17.5736 29.3084C17.4287 30.0683 16.934 30.4482 16.1744 31.1481C15.7647 31.528 15.4748 31.643 15.24 31.643C14.7453 31.558 14.1606 31.408 13.7509 31.2631C13.461 30.8831 13.0213 29.6284 12.9064 29.1034C12.9913 28.8135 13.3411 28.1986 13.516 27.8487C13.8658 27.1788 14.0707 26.7989 14.1306 26.4489C14.2456 25.954 14.6253 22.8896 14.7703 21.6098C15.15 22.1047 15.6747 22.9245 15.5548 23.4495C16.3993 22.2547 15.7897 21.0849 15.4948 20.62C15.235 20.155 14.8852 19.2202 15.175 18.2304C15.4648 17.2406 16.5142 14.4961 16.5142 14.4961C16.5142 14.4961 16.864 15.1109 17.3587 14.991C17.8534 14.876 21.8461 8.86706 21.8461 8.86706C21.8461 8.86706 22.9254 11.2266 21.7861 12.9513C20.6218 14.671 19.4825 14.991 19.4825 14.991C19.4825 14.991 21.0865 15.2809 22.5706 14.2011C23.1803 15.6309 23.7649 17.1156 23.7949 17.3205C23.705 17.5255 22.5406 20.325 22.4257 20.5C22.3657 20.56 21.961 20.675 21.6662 20.7349C21.1715 20.8799 20.8816 20.9699 20.7617 21.0549C20.5568 21.2299 19.6224 23.7944 19.1876 25.0492C18.6629 25.1941 18.1383 25.4891 17.7585 26.069C17.9634 25.924 18.603 25.834 19.0727 25.779C19.4825 25.749 20.7317 26.4189 21.0565 27.6737C21.0565 27.7037 21.0565 27.7037 21.0565 27.7337C21.1215 28.1936 20.9766 28.6335 20.7417 28.9835ZM18.0033 29.3334C18.2682 28.9535 18.2382 28.3136 18.2682 28.1086C18.2982 27.9037 18.3531 27.5237 18.588 27.4687C18.8229 27.4087 19.3775 27.4987 19.3775 27.9037C19.3775 28.2836 18.9678 28.3686 18.6779 28.6335C18.4681 28.8335 18.0583 29.2734 18.0033 29.3334ZM29.6314 23.7594C29.9213 22.2747 29.9512 20.9899 29.8663 19.9401C31.0006 21.4548 31.7002 23.2945 31.9051 25.1891C31.9351 25.4241 32.1649 25.6541 32.3998 25.889C32.6047 26.064 32.8395 26.2989 32.8395 26.4439C32.8395 27.1138 32.7796 27.7837 32.6646 28.4586C32.6346 28.5435 32.3748 28.6935 32.1699 28.8085C31.8801 28.9535 31.6153 29.0984 31.5603 29.3334C30.9207 31.578 29.5465 33.5626 27.7126 34.9624C30.421 32.1329 31.7302 27.4637 29.6314 23.7594ZM27.7975 35.2223C29.6914 33.7626 31.1505 31.723 31.7901 29.4184C31.8201 29.3334 32.08 29.1834 32.2549 29.0685C32.5447 28.9235 32.8395 28.7485 32.8945 28.5135C33.0094 27.8437 33.0694 27.1438 33.0694 26.4439C33.0694 26.184 32.8045 25.919 32.5447 25.6591C32.3998 25.4841 32.1649 25.2791 32.1649 25.1342C31.9301 23.0045 31.0856 20.9949 29.7763 19.3302C29.1917 15.8308 26.8631 14.751 26.8031 14.721C26.8631 14.811 28.3772 16.9956 27.3278 19.5602C26.2484 22.1547 23.4801 21.7498 23.2452 21.7748C23.0104 21.7748 22.1109 22.9395 20.9716 25.0992C20.8267 25.0392 20.212 24.8942 19.5124 25.0142C20.0371 23.5544 20.8267 21.4848 20.9716 21.3098C21.0315 21.2498 21.4663 21.1349 21.7611 21.0499C22.3158 20.9049 22.5756 20.8149 22.6656 20.6999C22.7255 20.61 23.0154 19.9401 23.3052 19.2402C23.57 19.2402 24.2396 19.1802 24.2946 19.1502C24.3546 19.0902 24.9092 17.6655 24.9092 17.4905C24.9092 17.3455 23.7699 14.5161 23.3352 13.4362C23.5401 13.2013 23.7449 12.9113 23.9448 12.5914C29.9213 13.2363 34.5885 18.3104 34.5885 24.4593C34.5885 29.1834 31.8201 33.2977 27.7975 35.2223Z" fill="#1B314F"/>
<path d="M19.8097 19.8056C20.3557 19.176 20.0704 18.0002 19.062 17.7986C19.3227 17.1984 19.6916 15.9932 19.6916 15.9932C19.6916 15.9932 16.7646 20.5829 16.5088 20.6714C16.2481 20.76 15.9923 19.7515 15.9923 19.7515C15.4463 21.8471 16.9122 22.1325 17.0844 21.4733C17.8862 21.2667 19.2636 20.4058 19.8097 19.8056Z" fill="#1B314F"/>
<path d="M17.3086 20.9223L18.7991 18.3691C18.7991 18.3691 19.66 18.802 19.2271 19.4907C18.686 20.2926 17.3086 20.9223 17.3086 20.9223Z" fill="#FFD923"/>
<path d="M35.7601 32.7483C35.3272 33.3238 34.8402 33.924 34.2695 34.4995C37.9688 27.3813 34.4417 20.8681 34.299 20.6123C34.5598 20.873 34.8156 21.1583 35.0468 21.4142C37.8852 24.5674 38.2296 29.3047 35.7601 32.7483Z" fill="#D82122"/>
<path d="M39.2072 23.5937C37.9134 20.1206 36.0785 17.1641 32.0349 14.4979C28.1338 11.9152 23.9426 12.1169 23.7114 12.1464C23.6819 12.1464 23.6523 12.1464 23.6523 12.1464C23.795 12.0874 23.9377 12.0579 24.0803 12.0333C24.9707 11.748 26.1169 11.5168 27.268 11.3741C30.3131 10.9363 33.3828 11.9693 35.4784 14.183C35.5079 14.2126 35.5079 14.2126 35.5374 14.2421C37.9184 16.7657 39.1531 19.919 39.2072 23.5937Z" fill="#D82122"/>
<path d="M31.1112 9.38633C26.8364 8.58448 24.0815 8.98295 22.0991 9.73068C22.04 9.49947 21.8383 9.04198 21.6662 8.66811C21.0709 9.38633 20.4363 10.2472 20.0379 10.7933C18.9458 11.541 18.4883 12.2592 18.4883 12.2592C19.118 10.1045 20.9578 8.50085 23.1961 8.09747C23.8257 7.98432 24.5144 7.92529 25.2622 7.92529C27.2397 7.95481 29.2173 8.44182 31.1112 9.38633Z" fill="#D82122"/>
<path d="M15.3026 14.8962C11.9476 14.7831 13.0643 10.8772 13.1233 10.6509C13.1233 10.6804 13.3496 13.7205 15.3026 14.8962Z" fill="#D82122"/>
<path d="M18.6019 7.8667C16.0193 9.41628 16.5358 13.1156 16.5358 13.1156C14.0663 9.36217 18.4002 7.95525 18.6019 7.8667Z" fill="#D82122"/>
<path d="M14.358 15.9292C14.5301 16.0719 14.7023 16.3326 14.5006 16.7064C14.3875 16.9081 14.2153 16.8786 13.9546 16.7655C13.6102 16.5933 11.5441 15.3881 9.67969 14.1533C11.8048 14.9011 13.9546 15.7029 14.2989 15.8751C14.2989 15.8751 14.3284 15.9046 14.358 15.9292Z" fill="#EEEEEE"/>
</g>
<defs>
<clipPath id="clip0_869_28387">
<rect width="44" height="44" fill="white"/>
</clipPath>
</defs>
</svg>
