<svg width="44" height="44" viewBox="0 0 44 44" fill="none" xmlns="http://www.w3.org/2000/svg">
<path d="M22 44C34.1503 44 44 34.1503 44 22C44 9.84974 34.1503 0 22 0C9.84974 0 0 9.84974 0 22C0 34.1503 9.84974 44 22 44Z" fill="#0033AD"/>
<g filter="url(#filter0_d_8658_11920)">
<path d="M21.6218 8.33242C22.2804 7.99279 23.0848 8.77792 22.7355 9.42554C22.5306 9.95354 21.7593 10.0938 21.366 9.69092C20.9494 9.30592 21.0855 8.54142 21.6218 8.33104V8.33242ZM14.5336 9.08317C14.9338 8.92092 15.4411 9.28117 15.3999 9.71154C15.4411 10.1763 14.8636 10.52 14.4553 10.2987C13.9149 10.0924 13.9768 9.22892 14.5336 9.08317V9.08317ZM29.0509 10.311C28.4253 10.2368 28.3263 9.26879 28.9271 9.07354C29.3946 8.85079 29.8236 9.27017 29.8924 9.70604C29.7934 10.0773 29.4771 10.4183 29.0509 10.311V10.311ZM16.1465 12.0504C16.8161 11.6338 17.7704 12.2539 17.6673 13.0198C17.6329 13.7912 16.5906 14.2394 16.0021 13.7169C15.4329 13.3072 15.5195 12.3667 16.1465 12.0504ZM26.3628 12.4932C26.6611 11.7369 27.8711 11.7122 28.2108 12.4492C28.5476 13.0225 28.1338 13.7334 27.5356 13.9287C26.7423 14.0744 25.9901 13.2302 26.3628 12.4932ZM20.7679 13.886C20.761 13.2343 21.3633 12.7503 21.9916 12.7049C22.4096 12.7874 22.8634 12.962 23.0421 13.3759C23.3763 13.9479 23.0793 14.733 22.4784 14.9957C22.2034 15.1469 21.8761 15.0905 21.5764 15.0727C21.1185 14.8527 20.7321 14.4168 20.7679 13.886ZM10.2271 14.8348C10.839 14.4635 11.664 15.1373 11.4316 15.7918C11.3051 16.3569 10.5324 16.5865 10.091 16.2263C9.61938 15.888 9.69363 15.0754 10.2285 14.8334L10.2271 14.8348ZM32.8624 14.832C33.3808 14.436 34.2374 14.8912 34.1741 15.5347C34.2099 16.1218 33.4688 16.5659 32.9545 16.2634C32.388 16.0118 32.3289 15.1538 32.8624 14.8334V14.832ZM23.7324 16.0022C24.5876 15.6997 25.6051 16.0613 26.0919 16.8134C26.7354 17.7305 26.3944 19.1275 25.3948 19.6542C24.3608 20.277 22.8496 19.7504 22.466 18.6119C22.0329 17.5944 22.6654 16.3212 23.731 16.0022H23.7324ZM18.7095 16.1025C19.6583 15.6625 20.9356 16.031 21.3935 16.9853C21.9325 17.9148 21.5159 19.2087 20.552 19.6885C19.5868 20.2289 18.2241 19.8192 17.758 18.8223C17.2341 17.857 17.6989 16.5467 18.7095 16.1025V16.1025ZM13.6811 17.7924C13.754 17.1915 14.3301 16.7997 14.9118 16.7584C15.2151 16.7904 15.4986 16.9244 15.7159 17.1385C15.9332 17.3525 16.0714 17.634 16.108 17.9368C16.0668 18.5555 15.5814 19.1578 14.9159 19.155C14.183 19.2169 13.5409 18.4992 13.6811 17.7924V17.7924ZM28.5339 16.8904C29.286 16.46 30.3296 17.0857 30.2966 17.9354C30.3475 18.836 29.1925 19.4699 28.4445 18.9419C27.6663 18.5019 27.7268 17.2644 28.5339 16.8904ZM16.6676 20.0625C17.5449 19.8247 18.5514 20.2317 18.9818 21.0264C19.4534 21.8267 19.2609 22.9377 18.528 23.5262C17.5861 24.3869 15.8523 24.0404 15.3518 22.8662C14.7756 21.7895 15.4755 20.3458 16.6663 20.0612L16.6676 20.0625ZM26.1923 20.0584C27.0461 19.8178 28.0499 20.1409 28.5091 20.9068C29.1169 21.7827 28.8268 23.0903 27.9234 23.654C26.9746 24.3099 25.5089 23.9662 24.9864 22.9404C24.3539 21.8803 24.9905 20.3815 26.1923 20.0584V20.0584ZM11.0123 21.0567C11.7713 20.7748 12.6128 21.5984 12.3048 22.3395C12.1178 23.0133 11.1511 23.2635 10.652 22.7658C10.0676 22.2983 10.2835 21.2602 11.0123 21.0567V21.0567ZM31.5946 22.1319C31.5804 21.8292 31.6862 21.5332 31.8891 21.3081C32.092 21.0831 32.3756 20.9472 32.6781 20.9302C33.1979 21.0127 33.7039 21.4252 33.6626 21.982C33.7108 22.7177 32.8101 23.2168 32.1721 22.8717C31.8738 22.7218 31.7211 22.4207 31.5946 22.1319ZM7.27913 21.4224C7.73563 21.2258 8.30075 21.6149 8.19625 22.114C8.1715 22.6792 7.32313 22.8978 7.01238 22.4248C6.73738 22.0962 6.90238 21.5915 7.27913 21.421V21.4224ZM36.084 21.41C36.4058 21.1859 36.9228 21.3468 37.0493 21.7167C37.2651 22.1209 36.8691 22.6737 36.4071 22.6063C35.7581 22.664 35.5491 21.6919 36.084 21.41ZM19.1481 24.1229C20.3499 23.8163 21.6424 24.8022 21.6506 26.0204C21.7276 27.251 20.4544 28.3414 19.2251 28.0582C18.2736 27.9069 17.527 27.0049 17.5586 26.0603C17.5559 25.1555 18.2489 24.314 19.1481 24.1229V24.1229ZM23.9084 24.1215C25.128 23.786 26.459 24.7898 26.4398 26.0355C26.5044 27.2428 25.271 28.2974 24.0665 28.0568C22.9321 27.9138 22.0961 26.6887 22.4124 25.6052C22.5719 24.8847 23.1851 24.2989 23.9084 24.1202V24.1215ZM14.7289 24.8709C15.5731 24.7293 16.3651 25.6547 16.0228 26.4439C15.7725 27.2854 14.5295 27.5123 13.9795 26.8262C13.336 26.1662 13.8173 24.9617 14.7289 24.8709V24.8709ZM28.6906 24.908C29.4441 24.5973 30.3681 25.238 30.3104 26.0424C30.3406 26.9265 29.1994 27.537 28.4638 27.02C27.6291 26.5567 27.7818 25.1913 28.6906 24.908V24.908ZM32.5929 28.758C32.2986 28.2177 32.8335 27.5013 33.4454 27.6017C33.7479 27.5962 33.961 27.8313 34.1549 28.0293C34.1948 28.3497 34.2621 28.7319 33.9913 28.978C33.6241 29.4359 32.7923 29.3053 32.5929 28.758V28.758ZM10.2244 27.7515C10.795 27.3789 11.6159 27.9358 11.4866 28.5903C11.4179 29.1719 10.6754 29.5033 10.1873 29.1733C9.662 28.8749 9.68125 28.0238 10.2244 27.7515V27.7515ZM21.4898 28.9657C22.2364 28.6425 23.1879 29.2819 23.1164 30.0904C23.1714 30.9842 21.9958 31.6029 21.2656 31.0667C20.4544 30.606 20.5905 29.2503 21.4898 28.9657V28.9657ZM16.273 30.1633C16.9083 29.8347 17.7608 30.4025 17.703 31.1038C17.7223 31.6785 17.153 32.168 16.5755 32.0828C16.0984 32.0732 15.7876 31.651 15.6336 31.2509C15.6419 30.815 15.8248 30.3297 16.273 30.1647V30.1633ZM26.8413 30.1743C27.4958 29.7755 28.4253 30.3475 28.3634 31.0955C28.3799 31.8793 27.3294 32.3798 26.7203 31.8655C26.1318 31.4627 26.2033 30.4947 26.8413 30.1743ZM28.6796 34.643C28.3881 34.2113 28.7305 33.6902 29.2021 33.5912C29.583 33.6668 29.9859 33.9487 29.9048 34.3804C29.8498 34.9675 28.978 35.1463 28.6796 34.6444V34.643ZM14.0895 34.2677C14.205 33.9239 14.4855 33.5843 14.8966 33.6737C15.4948 33.7149 15.6721 34.6032 15.1483 34.8768C14.678 35.1889 14.1308 34.7613 14.0895 34.2677ZM21.1295 34.6623C21.2436 34.1535 21.9105 33.9074 22.3505 34.1769C22.642 34.3007 22.7273 34.6197 22.8015 34.8919C22.7623 35.0333 22.7256 35.1754 22.6915 35.3182C22.5114 35.5272 22.279 35.7375 21.9793 35.7307C21.4224 35.7953 20.9191 35.1752 21.1281 34.6623H21.1295Z" fill="#0033AD"/>
</g>
<path d="M21.6218 8.33242C22.2804 7.99279 23.0848 8.77792 22.7355 9.42554C22.5306 9.95354 21.7593 10.0938 21.366 9.69092C20.9494 9.30592 21.0855 8.54142 21.6218 8.33104V8.33242ZM14.5336 9.08317C14.9338 8.92092 15.4411 9.28117 15.3999 9.71154C15.4411 10.1763 14.8636 10.52 14.4553 10.2987C13.9149 10.0924 13.9768 9.22892 14.5336 9.08317V9.08317ZM29.0509 10.311C28.4253 10.2368 28.3263 9.26879 28.9271 9.07354C29.3946 8.85079 29.8236 9.27017 29.8924 9.70604C29.7934 10.0773 29.4771 10.4183 29.0509 10.311V10.311ZM16.1465 12.0504C16.8161 11.6338 17.7704 12.2539 17.6673 13.0198C17.6329 13.7912 16.5906 14.2394 16.0021 13.7169C15.4329 13.3072 15.5195 12.3667 16.1465 12.0504ZM26.3628 12.4932C26.6611 11.7369 27.8711 11.7122 28.2108 12.4492C28.5476 13.0225 28.1338 13.7334 27.5356 13.9287C26.7423 14.0744 25.9901 13.2302 26.3628 12.4932ZM20.7679 13.886C20.761 13.2343 21.3633 12.7503 21.9916 12.7049C22.4096 12.7874 22.8634 12.962 23.0421 13.3759C23.3763 13.9479 23.0793 14.733 22.4784 14.9957C22.2034 15.1469 21.8761 15.0905 21.5764 15.0727C21.1185 14.8527 20.7321 14.4168 20.7679 13.886ZM10.2271 14.8348C10.839 14.4635 11.664 15.1373 11.4316 15.7918C11.3051 16.3569 10.5324 16.5865 10.091 16.2263C9.61938 15.888 9.69363 15.0754 10.2285 14.8334L10.2271 14.8348ZM32.8624 14.832C33.3808 14.436 34.2374 14.8912 34.1741 15.5347C34.2099 16.1218 33.4688 16.5659 32.9545 16.2634C32.388 16.0118 32.3289 15.1538 32.8624 14.8334V14.832ZM23.7324 16.0022C24.5876 15.6997 25.6051 16.0613 26.0919 16.8134C26.7354 17.7305 26.3944 19.1275 25.3948 19.6542C24.3608 20.277 22.8496 19.7504 22.466 18.6119C22.0329 17.5944 22.6654 16.3212 23.731 16.0022H23.7324ZM18.7095 16.1025C19.6583 15.6625 20.9356 16.031 21.3935 16.9853C21.9325 17.9148 21.5159 19.2087 20.552 19.6885C19.5868 20.2289 18.2241 19.8192 17.758 18.8223C17.2341 17.857 17.6989 16.5467 18.7095 16.1025V16.1025ZM13.6811 17.7924C13.754 17.1915 14.3301 16.7997 14.9118 16.7584C15.2151 16.7904 15.4986 16.9244 15.7159 17.1385C15.9332 17.3525 16.0714 17.634 16.108 17.9368C16.0668 18.5555 15.5814 19.1578 14.9159 19.155C14.183 19.2169 13.5409 18.4992 13.6811 17.7924V17.7924ZM28.5339 16.8904C29.286 16.46 30.3296 17.0857 30.2966 17.9354C30.3475 18.836 29.1925 19.4699 28.4445 18.9419C27.6663 18.5019 27.7268 17.2644 28.5339 16.8904ZM16.6676 20.0625C17.5449 19.8247 18.5514 20.2317 18.9818 21.0264C19.4534 21.8267 19.2609 22.9377 18.528 23.5262C17.5861 24.3869 15.8523 24.0404 15.3518 22.8662C14.7756 21.7895 15.4755 20.3458 16.6663 20.0612L16.6676 20.0625ZM26.1923 20.0584C27.0461 19.8178 28.0499 20.1409 28.5091 20.9068C29.1169 21.7827 28.8268 23.0903 27.9234 23.654C26.9746 24.3099 25.5089 23.9662 24.9864 22.9404C24.3539 21.8803 24.9905 20.3815 26.1923 20.0584V20.0584ZM11.0123 21.0567C11.7713 20.7748 12.6128 21.5984 12.3048 22.3395C12.1178 23.0133 11.1511 23.2635 10.652 22.7658C10.0676 22.2983 10.2835 21.2602 11.0123 21.0567V21.0567ZM31.5946 22.1319C31.5804 21.8292 31.6862 21.5332 31.8891 21.3081C32.092 21.0831 32.3756 20.9472 32.6781 20.9302C33.1979 21.0127 33.7039 21.4252 33.6626 21.982C33.7108 22.7177 32.8101 23.2168 32.1721 22.8717C31.8738 22.7218 31.7211 22.4207 31.5946 22.1319ZM7.27913 21.4224C7.73563 21.2258 8.30075 21.6149 8.19625 22.114C8.1715 22.6792 7.32313 22.8978 7.01238 22.4248C6.73738 22.0962 6.90238 21.5915 7.27913 21.421V21.4224ZM36.084 21.41C36.4058 21.1859 36.9228 21.3468 37.0493 21.7167C37.2651 22.1209 36.8691 22.6737 36.4071 22.6063C35.7581 22.664 35.5491 21.6919 36.084 21.41ZM19.1481 24.1229C20.3499 23.8163 21.6424 24.8022 21.6506 26.0204C21.7276 27.251 20.4544 28.3414 19.2251 28.0582C18.2736 27.9069 17.527 27.0049 17.5586 26.0603C17.5559 25.1555 18.2489 24.314 19.1481 24.1229V24.1229ZM23.9084 24.1215C25.128 23.786 26.459 24.7898 26.4398 26.0355C26.5044 27.2428 25.271 28.2974 24.0665 28.0568C22.9321 27.9138 22.0961 26.6887 22.4124 25.6052C22.5719 24.8847 23.1851 24.2989 23.9084 24.1202V24.1215ZM14.7289 24.8709C15.5731 24.7293 16.3651 25.6547 16.0228 26.4439C15.7725 27.2854 14.5295 27.5123 13.9795 26.8262C13.336 26.1662 13.8173 24.9617 14.7289 24.8709V24.8709ZM28.6906 24.908C29.4441 24.5973 30.3681 25.238 30.3104 26.0424C30.3406 26.9265 29.1994 27.537 28.4638 27.02C27.6291 26.5567 27.7818 25.1913 28.6906 24.908V24.908ZM32.5929 28.758C32.2986 28.2177 32.8335 27.5013 33.4454 27.6017C33.7479 27.5962 33.961 27.8313 34.1549 28.0293C34.1948 28.3497 34.2621 28.7319 33.9913 28.978C33.6241 29.4359 32.7923 29.3053 32.5929 28.758V28.758ZM10.2244 27.7515C10.795 27.3789 11.6159 27.9358 11.4866 28.5903C11.4179 29.1719 10.6754 29.5033 10.1873 29.1733C9.662 28.8749 9.68125 28.0238 10.2244 27.7515V27.7515ZM21.4898 28.9657C22.2364 28.6425 23.1879 29.2819 23.1164 30.0904C23.1714 30.9842 21.9958 31.6029 21.2656 31.0667C20.4544 30.606 20.5905 29.2503 21.4898 28.9657V28.9657ZM16.273 30.1633C16.9083 29.8347 17.7608 30.4025 17.703 31.1038C17.7223 31.6785 17.153 32.168 16.5755 32.0828C16.0984 32.0732 15.7876 31.651 15.6336 31.2509C15.6419 30.815 15.8248 30.3297 16.273 30.1647V30.1633ZM26.8413 30.1743C27.4958 29.7755 28.4253 30.3475 28.3634 31.0955C28.3799 31.8793 27.3294 32.3798 26.7203 31.8655C26.1318 31.4627 26.2033 30.4947 26.8413 30.1743ZM28.6796 34.643C28.3881 34.2113 28.7305 33.6902 29.2021 33.5912C29.583 33.6668 29.9859 33.9487 29.9048 34.3804C29.8498 34.9675 28.978 35.1463 28.6796 34.6444V34.643ZM14.0895 34.2677C14.205 33.9239 14.4855 33.5843 14.8966 33.6737C15.4948 33.7149 15.6721 34.6032 15.1483 34.8768C14.678 35.1889 14.1308 34.7613 14.0895 34.2677ZM21.1295 34.6623C21.2436 34.1535 21.9105 33.9074 22.3505 34.1769C22.642 34.3007 22.7273 34.6197 22.8015 34.8919C22.7623 35.0333 22.7256 35.1754 22.6915 35.3182C22.5114 35.5272 22.279 35.7375 21.9793 35.7307C21.4224 35.7953 20.9191 35.1752 21.1281 34.6623H21.1295Z" fill="white"/>
<defs>
<filter id="filter0_d_8658_11920" x="5.87549" y="7.75049" width="32.2344" height="29.4849" filterUnits="userSpaceOnUse" color-interpolation-filters="sRGB">
<feFlood flood-opacity="0" result="BackgroundImageFix"/>
<feColorMatrix in="SourceAlpha" type="matrix" values="0 0 0 0 0 0 0 0 0 0 0 0 0 0 0 0 0 0 127 0" result="hardAlpha"/>
<feOffset dy="0.5"/>
<feGaussianBlur stdDeviation="0.5"/>
<feColorMatrix type="matrix" values="0 0 0 0 0 0 0 0 0 0 0 0 0 0 0 0 0 0 0.204257 0"/>
<feBlend mode="normal" in2="BackgroundImageFix" result="effect1_dropShadow_8658_11920"/>
<feBlend mode="normal" in="SourceGraphic" in2="effect1_dropShadow_8658_11920" result="shape"/>
</filter>
</defs>
</svg>
