<svg width="44" height="44" viewBox="0 0 44 44" fill="none" xmlns="http://www.w3.org/2000/svg">
<g clip-path="url(#clip0_869_31595)">
<circle cx="22" cy="22" r="22" fill="#EEEEEE"/>
<g clip-path="url(#clip1_869_31595)">
<path d="M33.9418 14.7214H30.0648C29.6168 14.7214 29.187 14.5294 28.8853 14.1911L27.3126 12.4172C27.0748 12.152 26.7456 11.9966 26.389 11.9966C26.0324 11.9966 25.7032 12.152 25.4655 12.4172L24.1122 13.9442C23.6733 14.438 23.0333 14.7306 22.3749 14.7306H1.15212C0.548629 16.4405 0.155445 18.2601 0 20.1529H20.0341C20.3907 20.1529 20.7199 20.0066 20.9668 19.7505L22.8321 17.8029C23.0607 17.556 23.3899 17.4189 23.719 17.4189H23.7922C24.1488 17.4189 24.478 17.5743 24.7157 17.8395L26.2884 19.6134C26.5902 19.9517 27.02 20.1437 27.468 20.1437H43.8171C43.6617 18.2601 43.2685 16.4313 42.665 14.7123L33.9418 14.7214Z" fill="black"/>
<path d="M12.1237 31.5643C12.4803 31.5643 12.8095 31.418 13.0564 31.162L14.9217 29.2143C15.1595 28.9675 15.4795 28.8303 15.8178 28.8303H15.891C16.2476 28.8303 16.5859 28.9857 16.8145 29.2418L18.3872 31.0157C18.689 31.354 19.1187 31.546 19.5668 31.546H41.7314C42.5635 29.827 43.167 27.9891 43.5327 26.0597H22.2551C21.807 26.0597 21.3773 25.8677 21.0755 25.5294L19.5028 23.7738C19.265 23.5086 18.9359 23.3623 18.5793 23.3623C18.2226 23.3623 17.8843 23.5177 17.6557 23.7738L16.3024 25.3008C15.8635 25.8037 15.2235 26.0872 14.556 26.0872H0.300781C0.666534 28.0165 1.27002 29.8544 2.10211 31.5734L12.1237 31.5643Z" fill="black"/>
<path d="M27.8421 8.7872C28.1987 8.7872 28.5279 8.6409 28.7748 8.38487L30.6401 6.43724C30.8687 6.19036 31.1979 6.0532 31.5362 6.0532H31.6093C31.9659 6.0532 32.2951 6.20865 32.5329 6.47382L34.1056 8.25686C34.4073 8.59518 34.8371 8.7872 35.2851 8.7872H39.5004C35.4863 3.44721 29.1039 0 21.9169 0C14.7299 0 8.33835 3.44721 4.32422 8.7872H27.8421Z" fill="black"/>
<path d="M19.3832 37.0048H13.6226C13.1745 37.0048 12.7447 36.8128 12.443 36.4744L10.8703 34.7005C10.6325 34.4354 10.3034 34.2891 9.94674 34.2891C9.59014 34.2891 9.25181 34.4445 9.02322 34.7005L7.66994 36.2276C7.23103 36.7305 6.59097 37.0139 5.92347 37.0139H5.83203C9.84616 41.3115 15.561 44.0089 21.916 44.0089C28.2709 44.0089 33.9767 41.3115 37.9999 37.0139L19.3832 37.0048Z" fill="black"/>
</g>
</g>
<defs>
<clipPath id="clip0_869_31595">
<rect width="44" height="44" fill="white"/>
</clipPath>
<clipPath id="clip1_869_31595">
<rect width="44" height="44" fill="white"/>
</clipPath>
</defs>
</svg>
