<svg width="44" height="44" viewBox="0 0 44 44" fill="none" xmlns="http://www.w3.org/2000/svg">
<g clip-path="url(#clip0_5439_1351)">
<path d="M22 44C34.1503 44 44 34.1503 44 22C44 9.84974 34.1503 0 22 0C9.84974 0 0 9.84974 0 22C0 34.1503 9.84974 44 22 44Z" fill="#0AC18E"/>
<path d="M28.8624 14.6127C27.7568 12.1056 25.2162 11.5696 22.1061 12.0889L21.1066 8.21375L18.7502 8.82237L19.733 12.6863C19.1132 12.8427 18.4766 12.9767 17.8457 13.1554L16.8629 9.31374L14.5066 9.92237L15.5061 13.7975C14.998 13.9427 10.7487 15.0315 10.7487 15.0315L11.3964 17.5554C11.3964 17.5554 13.1274 17.0696 13.1106 17.1087C14.0711 16.8574 14.5233 17.3376 14.7355 17.7899L17.4827 28.4102C17.5162 28.7173 17.4604 29.2422 16.8015 29.4209C16.8406 29.4432 15.0873 29.862 15.0873 29.862L15.3441 32.8046C15.3441 32.8046 19.5543 31.7269 20.1071 31.5873L21.1178 35.5071L23.4741 34.8985L22.4634 30.9508C23.1112 30.8 23.7421 30.6437 24.3563 30.4818L25.3614 34.4071L27.7178 33.7985L26.7071 29.8843C30.3365 29.0021 32.8995 26.7127 32.3746 23.2117C32.0396 21.1011 29.7335 19.3701 27.8183 19.1747C28.9964 18.1305 29.5939 16.6061 28.8624 14.6127ZM27.7289 23.8538C28.198 27.3214 23.3792 27.7457 21.7878 28.1645L20.403 22.9772C22 22.5584 26.936 20.7995 27.7289 23.8538ZM24.8254 16.7904C25.3223 19.8726 21.2015 20.23 19.8726 20.5706L18.6106 15.8635C19.9452 15.534 23.8147 13.9371 24.8254 16.7904Z" fill="white"/>
</g>
<defs>
<clipPath id="clip0_5439_1351">
<rect width="44" height="44" fill="white"/>
</clipPath>
</defs>
</svg>
