<svg width="44" height="44" viewBox="0 0 44 44" fill="none" xmlns="http://www.w3.org/2000/svg">
<g clip-path="url(#clip0_8658_11925)">
<path fill-rule="evenodd" clip-rule="evenodd" d="M22 0C34.1511 0 44 9.84888 44 22C44 34.1511 34.1511 44 22 44C9.84888 44 0 34.1511 0 22C0 9.84888 9.84888 0 22 0Z" fill="#F0B90B"/>
<path d="M12.0911 22.0001L12.107 27.8174L17.0499 30.726V34.1318L9.21417 29.5361V20.2989L12.0911 22.0001ZM12.0911 16.1827V19.5727L9.2124 17.8698V14.4799L12.0911 12.777L14.9839 14.4799L12.0911 16.1827ZM19.1142 14.4799L21.9928 12.777L24.8856 14.4799L21.9928 16.1827L19.1142 14.4799Z" fill="white"/>
<path d="M14.1714 26.6116V23.2058L17.0501 24.9087V28.2986L14.1714 26.6116ZM19.1143 31.9459L21.993 33.6488L24.8858 31.9459V35.3358L21.993 37.0387L19.1143 35.3358V31.9459ZM29.0143 14.4799L31.893 12.777L34.7858 14.4799V17.8698L31.893 19.5727V16.1827L29.0143 14.4799ZM31.893 27.8174L31.9089 22.0001L34.7876 20.2972V29.5344L26.9518 34.13V30.7243L31.893 27.8174Z" fill="white"/>
<path d="M29.8286 26.6116L26.95 28.2986V24.9087L29.8286 23.2058V26.6116Z" fill="white"/>
<path d="M29.8288 17.3885L29.8446 20.7943L24.8876 23.7029V29.5343L22.0089 31.2214L19.1302 29.5343V23.7029L14.1731 20.7943V17.3885L17.0642 15.6856L21.9913 18.6084L26.9483 15.6856L29.8411 17.3885H29.8288ZM14.1714 11.573L21.993 6.96143L29.8288 11.573L26.9501 13.2758L21.993 10.3531L17.0501 13.2758L14.1714 11.573Z" fill="white"/>
</g>
<defs>
<clipPath id="clip0_8658_11925">
<rect width="44" height="44" fill="white"/>
</clipPath>
</defs>
</svg>
