<svg width="44" height="44" viewBox="0 0 44 44" fill="none" xmlns="http://www.w3.org/2000/svg">
<circle cx="22" cy="22" r="22" fill="#41D5E1"/>
<path fill-rule="evenodd" clip-rule="evenodd" d="M13.5025 12.925C13.09 10.78 14.74 8.80005 16.885 8.80005C18.7825 8.80005 20.35 10.3675 20.35 12.265V16.555C20.845 16.555 21.34 16.4725 21.835 16.4725C22.33 16.4725 22.7425 16.4725 23.2375 16.555V12.265C23.2375 10.3675 24.805 8.80005 26.7025 8.80005C28.8475 8.80005 30.4975 10.78 30.1675 12.925L29.26 17.9575C32.4775 19.36 34.9525 21.835 34.9525 24.8875V26.785C34.9525 29.3425 33.3025 31.4876 30.91 32.8901C28.5175 34.3751 25.3825 35.2001 21.835 35.2001C18.2875 35.2001 15.1525 34.3751 12.76 32.8901C10.45 31.4876 8.80005 29.3425 8.80005 26.785V24.8875C8.80005 21.835 11.1925 19.36 14.41 17.9575L13.5025 12.925ZM28.0225 18.6175L29.095 12.6775C29.3425 11.1925 28.27 9.79005 26.7025 9.79005C25.3825 9.79005 24.31 10.8625 24.31 12.1825V17.6275C23.98 17.545 23.5675 17.545 23.2375 17.545C22.7425 17.545 22.33 17.4625 21.835 17.4625C21.34 17.4625 20.845 17.4625 20.35 17.545C20.02 17.545 19.6075 17.6275 19.2775 17.6275V12.265C19.2775 10.945 18.205 9.87255 16.885 9.87255C15.4 9.87255 14.245 11.275 14.575 12.76L15.6475 18.7C12.1825 20.02 9.87255 22.33 9.87255 24.9701V26.8675C9.87255 30.91 15.235 34.21 21.835 34.21C28.435 34.21 33.7975 30.91 33.7975 26.8675V24.9701C33.88 22.2475 31.57 19.9375 28.0225 18.6175Z" fill="#633001"/>
<path d="M33.8811 26.7851C33.8811 30.8276 28.5186 34.1276 21.9186 34.1276C15.3186 34.1276 9.95605 30.8276 9.95605 26.7851V24.8876H33.9636V26.7851H33.8811Z" fill="#FEDC90"/>
<path fill-rule="evenodd" clip-rule="evenodd" d="M14.5761 12.7594C14.2461 11.2744 15.4011 9.87195 16.8861 9.87195C18.2061 9.87195 19.2786 10.9444 19.2786 12.2644V17.7094C20.1036 17.6269 20.9286 17.5444 21.8361 17.5444C22.6611 17.5444 23.4861 17.6269 24.3111 17.7094V12.2644C24.3111 10.9444 25.3836 9.87195 26.7036 9.87195C28.1886 9.87195 29.3436 11.2744 29.0961 12.7594L28.0236 18.6994C31.4886 20.0194 33.8811 22.3294 33.8811 24.9694C33.8811 29.0119 28.5186 32.3119 21.9186 32.3119C15.3186 32.3119 9.95605 29.0119 9.95605 24.9694C9.95605 22.3294 12.2661 20.0194 15.7311 18.6994L14.5761 12.7594Z" fill="#D1884F"/>
<path d="M18.534 24.3926C18.534 25.4651 17.9565 26.3726 17.214 26.3726C16.4715 26.3726 15.894 25.4651 15.894 24.3926C15.894 23.3201 16.4715 22.4126 17.214 22.4126C17.9565 22.4126 18.534 23.3201 18.534 24.3926Z" fill="#633001"/>
<path d="M27.6903 24.3926C27.6903 25.4651 27.1128 26.3726 26.3703 26.3726C25.6278 26.3726 25.0503 25.4651 25.0503 24.3926C25.0503 23.3201 25.6278 22.4126 26.3703 22.4126C27.1128 22.4126 27.6903 23.3201 27.6903 24.3926Z" fill="#633001"/>
</svg>
