<svg width="44" height="44" viewBox="0 0 44 44" fill="none" xmlns="http://www.w3.org/2000/svg">
<g clip-path="url(#clip0_8658_11930)">
<path fill-rule="evenodd" clip-rule="evenodd" d="M22 0C26.3512 0 30.6047 1.29028 34.2225 3.70767C37.8404 6.12506 40.6602 9.56099 42.3253 13.581C43.9905 17.6009 44.4261 22.0244 43.5773 26.292C42.7284 30.5596 40.6331 34.4796 37.5563 37.5564C34.4796 40.6331 30.5596 42.7284 26.292 43.5773C22.0244 44.4262 17.6009 43.9905 13.581 42.3254C9.56099 40.6602 6.12506 37.8404 3.70767 34.2225C1.29028 30.6047 0 26.3512 0 22C0 16.1652 2.31785 10.5695 6.44365 6.44365C10.5694 2.31785 16.1652 0 22 0V0Z" fill="#EEEEEE"/>
<path fill-rule="evenodd" clip-rule="evenodd" d="M29.8994 14.04C29.7962 13.9369 29.7344 13.8338 29.7344 13.6894C29.7344 13.545 29.7962 13.4419 29.8994 13.3388C30.1056 13.1532 30.4356 13.1532 30.6625 13.3388C30.7656 13.4419 30.8275 13.545 30.8275 13.6894C30.8275 13.8338 30.7656 13.9369 30.6625 14.04C30.5593 14.1225 30.415 14.1844 30.2912 14.1844C30.1469 14.205 30.0025 14.1638 29.8994 14.04Z" fill="#0D022B"/>
<path fill-rule="evenodd" clip-rule="evenodd" d="M28.5745 15.4625C28.492 15.3594 28.4302 15.2563 28.4302 15.1119C28.4302 14.9675 28.492 14.8644 28.5745 14.7613C28.7602 14.5757 29.0902 14.5757 29.2758 14.7613C29.3583 14.8644 29.4201 14.9675 29.4201 15.1119C29.4201 15.2563 29.3583 15.3594 29.2758 15.4625C29.1726 15.545 29.0695 15.6069 28.9252 15.6069C28.7808 15.6069 28.6777 15.545 28.5745 15.4625Z" fill="#0D022B"/>
<path fill-rule="evenodd" clip-rule="evenodd" d="M27.1307 16.8229C27.0482 16.7404 26.9863 16.6166 26.9863 16.4722C26.9863 16.3279 27.0482 16.2248 27.1307 16.1216C27.3163 15.936 27.6463 15.936 27.8319 16.1216C27.9144 16.2041 27.9763 16.3279 27.9763 16.4722C27.9763 16.6166 27.9144 16.7197 27.8319 16.8229C27.7288 16.926 27.6257 16.9672 27.4813 16.9672C27.3369 16.9672 27.2132 16.9054 27.1307 16.8229Z" fill="#0D022B"/>
<path fill-rule="evenodd" clip-rule="evenodd" d="M25.7563 18.2045C25.6532 18.122 25.5913 17.9982 25.5913 17.8538C25.5913 17.7095 25.6532 17.6063 25.7563 17.5032C25.9625 17.3176 26.2925 17.3176 26.5194 17.5032C26.6225 17.5857 26.6844 17.7095 26.6844 17.8538C26.6844 17.9982 26.6225 18.122 26.5194 18.2045C26.4163 18.3076 26.2719 18.3488 26.1482 18.3488C26.0038 18.3488 25.88 18.3282 25.7563 18.2045Z" fill="#0D022B"/>
<path fill-rule="evenodd" clip-rule="evenodd" d="M24.4315 19.5875C24.3284 19.505 24.2871 19.3813 24.2871 19.2369C24.2871 19.0925 24.349 18.9894 24.4315 18.8863C24.6171 18.7007 24.9471 18.7007 25.1327 18.8863C25.2358 18.9688 25.2771 19.0925 25.2771 19.2369C25.2771 19.3813 25.2152 19.505 25.1327 19.5875C25.0502 19.6906 24.9265 19.7319 24.7821 19.7319C24.6583 19.7525 24.514 19.7113 24.4315 19.5875Z" fill="#0D022B"/>
<path fill-rule="evenodd" clip-rule="evenodd" d="M22.8433 20.6169C22.8433 20.4725 22.9051 20.3694 22.9876 20.2663C23.1733 20.0807 23.5032 20.0807 23.6889 20.2663C23.792 20.3694 23.8332 20.4725 23.8332 20.6169C23.8332 20.7613 23.7714 20.8644 23.6889 20.9675C23.6064 21.05 23.4826 21.1119 23.3382 21.1119C23.1939 21.1119 23.0908 21.05 22.9876 20.9675C22.8845 20.885 22.8433 20.7613 22.8433 20.6169Z" fill="#0D022B"/>
<path fill-rule="evenodd" clip-rule="evenodd" d="M20.2699 23.67C20.1874 23.5875 20.1255 23.4638 20.1255 23.3194C20.1255 23.175 20.1874 23.0719 20.2699 22.9688C20.4555 22.7832 20.7855 22.7832 20.9711 22.9688C21.0742 23.0719 21.1155 23.175 21.1155 23.3194C21.1155 23.4638 21.0536 23.5669 20.9711 23.67C20.8886 23.7731 20.7648 23.8144 20.6205 23.8144C20.4967 23.835 20.373 23.7938 20.2699 23.67Z" fill="#0D022B"/>
<path fill-rule="evenodd" clip-rule="evenodd" d="M18.8469 25.0516C18.7438 24.9691 18.6819 24.8454 18.6819 24.701C18.6819 24.5566 18.7438 24.4535 18.8469 24.3504C19.0531 24.1648 19.3831 24.1648 19.61 24.3504C19.7131 24.4535 19.775 24.5566 19.775 24.701C19.775 24.8454 19.7131 24.9485 19.61 25.0516C19.5069 25.1547 19.3625 25.196 19.2387 25.196C19.0737 25.2166 18.95 25.1547 18.8469 25.0516Z" fill="#0D022B"/>
<path fill-rule="evenodd" clip-rule="evenodd" d="M17.5037 26.4544C17.4212 26.372 17.3594 26.2482 17.3594 26.1038C17.3594 25.9595 17.4212 25.8357 17.5037 25.7532C17.6894 25.5676 18.0194 25.5676 18.205 25.7532C18.2875 25.8357 18.3493 25.9595 18.3493 26.1038C18.3493 26.2482 18.2875 26.3513 18.205 26.4544C18.1018 26.5576 17.9987 26.5988 17.8544 26.5988C17.71 26.5988 17.6275 26.5369 17.5037 26.4544Z" fill="#0D022B"/>
<path fill-rule="evenodd" clip-rule="evenodd" d="M16.1268 27.836C16.0237 27.7535 15.9824 27.6298 15.9824 27.4854C15.9824 27.3411 16.0443 27.2379 16.1268 27.1348C16.3124 26.9492 16.6424 26.9492 16.828 27.1348C16.9105 27.2379 16.9724 27.3411 16.9724 27.4854C16.9724 27.6298 16.9105 27.7535 16.828 27.836C16.7249 27.9392 16.6218 27.9804 16.4774 27.9804C16.3537 27.9804 16.2093 27.9392 16.1268 27.836Z" fill="#0D022B"/>
<path fill-rule="evenodd" clip-rule="evenodd" d="M14.7036 29.2175C14.6004 29.135 14.5386 29.0113 14.5386 28.8669C14.5386 28.7225 14.6004 28.6194 14.7036 28.5163C14.9098 28.3307 15.2398 28.3307 15.4254 28.5163C15.5285 28.6194 15.5904 28.7225 15.5904 28.8669C15.5904 29.0113 15.5285 29.135 15.4254 29.2175C15.3223 29.3 15.1779 29.3619 15.0542 29.3619C14.9098 29.3619 14.7861 29.3206 14.7036 29.2175Z" fill="#0D022B"/>
<path fill-rule="evenodd" clip-rule="evenodd" d="M13.3424 30.5991C13.2392 30.496 13.198 30.3929 13.198 30.2485C13.198 30.1041 13.2599 30.001 13.3424 29.8979C13.528 29.7123 13.858 29.7123 14.0436 29.8979C14.1467 30.001 14.188 30.1041 14.188 30.2485C14.188 30.3929 14.1261 30.496 14.0436 30.5991C13.9611 30.6816 13.8373 30.7435 13.693 30.7435C13.5899 30.7641 13.4661 30.7022 13.3424 30.5991Z" fill="#0D022B"/>
<path fill-rule="evenodd" clip-rule="evenodd" d="M14.0436 14.04C14.1261 13.9369 14.188 13.8338 14.188 13.6894C14.188 13.545 14.1261 13.4419 14.0436 13.3388C13.858 13.1532 13.528 13.1532 13.3424 13.3388C13.2392 13.4419 13.198 13.545 13.198 13.6894C13.198 13.8338 13.2599 13.9369 13.3424 14.04C13.4249 14.1225 13.5486 14.1844 13.693 14.1844C13.8373 14.205 13.9611 14.1638 14.0436 14.04Z" fill="#0D022B"/>
<path fill-rule="evenodd" clip-rule="evenodd" d="M15.4183 15.4625C15.5214 15.3594 15.5833 15.2563 15.5833 15.1119C15.5833 14.9675 15.5214 14.8644 15.4183 14.7613C15.2121 14.5757 14.8821 14.5757 14.6552 14.7613C14.5521 14.8644 14.4902 14.9675 14.4902 15.1119C14.4902 15.2563 14.5521 15.3594 14.6552 15.4625C14.7583 15.545 14.9027 15.6069 15.0265 15.6069C15.1708 15.5863 15.3152 15.545 15.4183 15.4625Z" fill="#0D022B"/>
<path fill-rule="evenodd" clip-rule="evenodd" d="M16.828 16.8229C16.9105 16.7404 16.9724 16.6166 16.9724 16.4722C16.9724 16.3279 16.9105 16.2248 16.828 16.1216C16.6424 15.936 16.3124 15.936 16.1268 16.1216C16.0443 16.2041 15.9824 16.3279 15.9824 16.4722C15.9824 16.6166 16.0443 16.7197 16.1268 16.8229C16.2299 16.926 16.333 16.9672 16.4774 16.9672C16.6011 16.9672 16.7249 16.9054 16.828 16.8229Z" fill="#0D022B"/>
<path fill-rule="evenodd" clip-rule="evenodd" d="M18.205 18.2045C18.2875 18.122 18.3493 17.9982 18.3493 17.8538C18.3493 17.7095 18.2875 17.6063 18.205 17.5032C18.0194 17.3176 17.6894 17.3176 17.5037 17.5032C17.4212 17.5857 17.3594 17.7095 17.3594 17.8538C17.3594 17.9982 17.4212 18.122 17.5037 18.2045C17.6069 18.3076 17.71 18.3488 17.8544 18.3488C17.9781 18.3488 18.1018 18.3282 18.205 18.2045Z" fill="#0D022B"/>
<path fill-rule="evenodd" clip-rule="evenodd" d="M19.5687 19.5875C19.6718 19.505 19.7337 19.3813 19.7337 19.2369C19.7337 19.0925 19.6718 18.9894 19.5687 18.8863C19.3831 18.7007 19.0325 18.7007 18.8469 18.8863C18.7438 18.9688 18.6819 19.0925 18.6819 19.2369C18.6819 19.3813 18.7438 19.505 18.8469 19.5875C18.95 19.6906 19.0944 19.7319 19.2181 19.7319C19.3419 19.7525 19.4862 19.7113 19.5687 19.5875Z" fill="#0D022B"/>
<path fill-rule="evenodd" clip-rule="evenodd" d="M21.1155 20.6169C21.1155 20.4725 21.0536 20.3694 20.9711 20.2663C20.7855 20.0807 20.4555 20.0807 20.2699 20.2663C20.1667 20.3694 20.1255 20.4725 20.1255 20.6169C20.1255 20.7613 20.1874 20.8644 20.2699 20.9675C20.3524 21.05 20.4761 21.1119 20.6205 21.1119C20.7648 21.1119 20.868 21.05 20.9711 20.9675C21.0742 20.885 21.1155 20.7613 21.1155 20.6169Z" fill="#0D022B"/>
<path fill-rule="evenodd" clip-rule="evenodd" d="M22.3483 22.3703C22.4514 22.2672 22.4926 22.1641 22.4926 22.0197C22.4926 21.8754 22.4308 21.7722 22.3483 21.6691C22.1627 21.4835 21.8327 21.4835 21.6471 21.6691C21.5439 21.7722 21.5027 21.8754 21.5027 22.0197C21.5027 22.1641 21.5646 22.2672 21.6471 22.3703C21.7296 22.4528 21.8533 22.5147 21.9977 22.5147C22.142 22.5147 22.2658 22.4528 22.3483 22.3703Z" fill="#0D022B"/>
<path fill-rule="evenodd" clip-rule="evenodd" d="M23.7301 23.67C23.8332 23.5875 23.8951 23.4638 23.8951 23.3194C23.8951 23.175 23.8332 23.0719 23.7301 22.9688C23.5239 22.7832 23.1939 22.7832 23.0083 22.9688C22.9051 23.0719 22.8433 23.175 22.8433 23.3194C22.8433 23.4638 22.9051 23.5669 23.0083 23.67C23.1114 23.7731 23.2557 23.8144 23.3795 23.8144C23.4826 23.835 23.627 23.7938 23.7301 23.67Z" fill="#0D022B"/>
<path fill-rule="evenodd" clip-rule="evenodd" d="M25.1327 25.0516C25.2152 24.9691 25.2771 24.8454 25.2771 24.701C25.2771 24.5566 25.2152 24.4535 25.1327 24.3504C24.9471 24.1648 24.6171 24.1648 24.4315 24.3504C24.349 24.4535 24.2871 24.5566 24.2871 24.701C24.2871 24.8454 24.349 24.9485 24.4315 25.0516C24.5346 25.1547 24.6377 25.196 24.7821 25.196C24.8852 25.2166 25.0296 25.1547 25.1327 25.0516Z" fill="#0D022B"/>
<path fill-rule="evenodd" clip-rule="evenodd" d="M26.5219 26.4544C26.6044 26.372 26.6662 26.2482 26.6662 26.1038C26.6662 25.9595 26.6044 25.8357 26.5219 25.7532C26.3362 25.5676 26.0063 25.5676 25.8206 25.7532C25.7381 25.8357 25.6763 25.9595 25.6763 26.1038C25.6763 26.2482 25.7381 26.3513 25.8206 26.4544C25.9238 26.5576 26.0269 26.5988 26.1712 26.5988C26.3156 26.5988 26.4187 26.5369 26.5219 26.4544Z" fill="#0D022B"/>
<path fill-rule="evenodd" clip-rule="evenodd" d="M27.8139 27.836C27.917 27.7535 27.9582 27.6298 27.9582 27.4854C27.9582 27.3411 27.8964 27.2379 27.8139 27.1348C27.6282 26.9492 27.2983 26.9492 27.1126 27.1348C27.0301 27.2379 26.9683 27.3411 26.9683 27.4854C26.9683 27.6298 27.0301 27.7535 27.1126 27.836C27.2158 27.9392 27.3189 27.9804 27.4632 27.9804C27.587 27.9804 27.7314 27.9392 27.8139 27.836Z" fill="#0D022B"/>
<path fill-rule="evenodd" clip-rule="evenodd" d="M29.2758 29.2175C29.3789 29.135 29.4201 29.0113 29.4201 28.8669C29.4201 28.7225 29.3583 28.6194 29.2758 28.5163C29.0902 28.3307 28.7602 28.3307 28.5745 28.5163C28.4714 28.6194 28.4302 28.7225 28.4302 28.8669C28.4302 29.0113 28.492 29.135 28.5745 29.2175C28.657 29.3 28.7808 29.3619 28.9252 29.3619C29.0695 29.3619 29.1933 29.3206 29.2758 29.2175Z" fill="#0D022B"/>
<path fill-rule="evenodd" clip-rule="evenodd" d="M30.6576 30.5991C30.7607 30.496 30.8226 30.3929 30.8226 30.2485C30.8226 30.1041 30.7607 30.001 30.6576 29.8979C30.4514 29.7123 30.1214 29.7123 29.9357 29.8979C29.8326 30.001 29.7708 30.1041 29.7708 30.2485C29.7708 30.3929 29.8326 30.496 29.9357 30.5991C30.0389 30.6816 30.1832 30.7435 30.307 30.7435C30.4101 30.7641 30.5338 30.7022 30.6576 30.5991Z" fill="#0D022B"/>
<path fill-rule="evenodd" clip-rule="evenodd" d="M17.3182 14.4305C18.7206 13.5024 20.2674 13.0693 21.9792 13.0486C23.6498 13.0486 25.1966 13.5024 26.6403 14.4305L29.6102 11.4606C27.2797 9.68689 24.7635 8.80005 21.9792 8.80005C19.195 8.80005 16.6376 9.68689 14.3689 11.4606L17.3182 14.4305Z" fill="#0D022B"/>
<path fill-rule="evenodd" clip-rule="evenodd" d="M14.348 26.6184C13.3993 25.1747 12.9455 23.6485 12.9455 21.9985C12.9455 20.328 13.3993 18.7812 14.348 17.3787L11.3987 14.4294C9.66627 16.6981 8.80005 19.2143 8.80005 22.0192C8.80005 24.7828 9.66627 27.3196 11.4193 29.6295L14.348 26.6184Z" fill="#0D022B"/>
<path fill-rule="evenodd" clip-rule="evenodd" d="M26.622 29.5691C25.2196 30.5178 23.6727 31.0128 22.0022 31.0334C20.2904 31.0334 18.7229 30.5797 17.3205 29.5897L14.3506 32.539C16.6399 34.3333 19.1973 35.2201 22.0022 35.1995C24.7864 35.1789 27.3026 34.2714 29.5713 32.539L26.622 29.5691Z" fill="#0D022B"/>
<path fill-rule="evenodd" clip-rule="evenodd" d="M29.5281 17.3374C30.4768 18.7811 30.9718 20.3486 30.9305 22.0398C30.9099 23.6897 30.4355 25.1953 29.5281 26.5771L32.498 29.5263C34.251 27.2577 35.1585 24.7415 35.1585 21.9779C35.1791 19.173 34.2923 16.6156 32.498 14.3263L29.5281 17.3374Z" fill="#0D022B"/>
<path fill-rule="evenodd" clip-rule="evenodd" d="M32.6243 30.4972C33.7586 30.4972 34.7074 31.4253 34.7074 32.5802C34.7074 33.7146 33.7793 34.6633 32.6243 34.6633C31.49 34.6633 30.5413 33.7352 30.5413 32.5802C30.5413 31.4253 31.4693 30.4972 32.6243 30.4972Z" fill="#0D022B"/>
<path fill-rule="evenodd" clip-rule="evenodd" d="M11.3781 30.4972C12.5124 30.4972 13.4405 31.4253 13.4405 32.5802C13.4405 33.7146 12.5124 34.6633 11.3781 34.6633C10.2438 34.6633 9.31567 33.7352 9.31567 32.5802C9.31567 31.4253 10.2438 30.4972 11.3781 30.4972Z" fill="#0D022B"/>
<path fill-rule="evenodd" clip-rule="evenodd" d="M32.6581 9.255C33.7925 9.255 34.7205 10.1831 34.7205 11.3381C34.7205 12.493 33.7925 13.4211 32.6581 13.4211C31.5238 13.4211 30.5957 12.493 30.5957 11.3381C30.5957 10.1831 31.5238 9.255 32.6581 9.255Z" fill="#0D022B"/>
<path fill-rule="evenodd" clip-rule="evenodd" d="M11.3321 9.255C12.4664 9.255 13.4151 10.1831 13.4151 11.3174C13.4151 12.4518 12.487 13.3798 11.3321 13.3798C10.1977 13.3798 9.24902 12.4518 9.24902 11.3174C9.24902 10.1831 10.1771 9.255 11.3321 9.255Z" fill="#0D022B"/>
</g>
<defs>
<clipPath id="clip0_8658_11930">
<rect width="44" height="44" fill="white"/>
</clipPath>
</defs>
</svg>
