<svg width="44" height="44" viewBox="0 0 44 44" fill="none" xmlns="http://www.w3.org/2000/svg">
<g clip-path="url(#clip0_8658_11932)">
<path fill-rule="evenodd" clip-rule="evenodd" d="M21.9141 0C26.2652 0 30.5187 1.29028 34.1366 3.70767C37.7545 6.12506 40.5743 9.56099 42.2394 13.581C43.9045 17.6009 44.3402 22.0244 43.4913 26.292C42.6425 30.5596 40.5472 34.4796 37.4704 37.5564C34.3936 40.6331 30.4736 42.7284 26.206 43.5773C21.9385 44.4262 17.515 43.9905 13.495 42.3254C9.47505 40.6602 6.03912 37.8404 3.62173 34.2225C1.20434 30.6047 -0.0859375 26.3512 -0.0859375 22C-0.0859375 16.1652 2.23191 10.5695 6.35771 6.44365C10.4835 2.31785 16.0793 0 21.9141 0V0Z" fill="#EEEEEE"/>
<path fill-rule="evenodd" clip-rule="evenodd" d="M21.9139 4.724L27.7019 13.372L33.4899 22.022L21.9139 27.854L10.3379 22L16.1259 13.35L21.9139 4.724ZM21.9139 30.184L10.9799 24.35L21.9139 39.276L32.8479 24.35L21.9139 30.184Z" fill="#343434"/>
<path fill-rule="evenodd" clip-rule="evenodd" d="M21.9141 4.724L27.7021 13.35L33.4901 22L21.9141 17.63V4.724Z" fill="#343434"/>
<path fill-rule="evenodd" clip-rule="evenodd" d="M21.9141 30.184L32.8701 24.35L21.9141 39.298V30.184Z" fill="#313131"/>
<path fill-rule="evenodd" clip-rule="evenodd" d="M21.9141 17.63L33.4901 22L21.9141 27.832V17.63Z" fill="#151515"/>
<path fill-rule="evenodd" clip-rule="evenodd" d="M21.9139 4.724L16.1259 13.35L10.3379 22L21.9139 17.63V4.724Z" fill="#8C8C8C"/>
<path fill-rule="evenodd" clip-rule="evenodd" d="M21.914 30.184L10.98 24.35L21.914 39.298V30.184Z" fill="#8A8A8A"/>
<path fill-rule="evenodd" clip-rule="evenodd" d="M21.9139 17.63L10.3379 22L21.9139 27.832V17.63Z" fill="#353535"/>
</g>
<defs>
<clipPath id="clip0_8658_11932">
<rect width="44" height="44" fill="white"/>
</clipPath>
</defs>
</svg>
