<svg width="44" height="44" viewBox="0 0 44 44" fill="none" xmlns="http://www.w3.org/2000/svg">
<g clip-path="url(#clip0_8658_11935)">
<path d="M22 44C34.1503 44 44 34.1503 44 22C44 9.84974 34.1503 0 22 0C9.84974 0 0 9.84974 0 22C0 34.1503 9.84974 44 22 44Z" fill="#6747ED"/>
<path fill-rule="evenodd" clip-rule="evenodd" d="M21.6794 24.8417C18.4252 24.8417 15.8127 22.2292 15.8127 18.9751C15.8127 15.7209 18.4252 13.1084 21.6794 13.1084C24.9336 13.1084 27.5461 15.7209 27.5461 18.9751C27.5461 22.2292 24.9336 24.8417 21.6794 24.8417ZM21.6794 10.175C26.5377 10.175 30.4794 14.1167 30.4794 18.9751C30.4794 23.8334 26.5377 27.775 21.6794 27.775C16.8211 27.775 12.8794 23.8334 12.8794 18.9751C12.8794 14.1167 16.8211 10.175 21.6794 10.175ZM30.0669 28.2334C30.6627 28.8292 30.6627 29.7459 30.0669 30.2959L24.2002 36.1625C23.6044 36.7584 22.6877 36.7584 22.1377 36.1625C21.5419 35.5667 21.5419 34.65 22.1377 34.1L28.0044 28.2334C28.5544 27.6375 29.5169 27.6375 30.0669 28.2334ZM33.4586 11.6417C33.4586 12.4667 32.8169 13.1084 31.9919 13.1084C31.1669 13.1084 30.5252 12.4667 30.5252 11.6417C30.5252 10.8167 31.1669 10.175 31.9919 10.175C32.7711 10.175 33.4586 10.8167 33.4586 11.6417Z" fill="white"/>
</g>
<defs>
<clipPath id="clip0_8658_11935">
<rect width="44" height="44" fill="white"/>
</clipPath>
</defs>
</svg>
