<svg width="44" height="44" viewBox="0 0 44 44" fill="none" xmlns="http://www.w3.org/2000/svg">
<g clip-path="url(#clip0_8658_11937)">
<path d="M21.9985 -0.000244141C9.8482 -0.000244141 -0.00146484 9.84942 -0.00146484 21.9998C-0.00146484 34.1501 9.8482 43.9998 21.9985 43.9998C34.1489 43.9998 43.9985 34.1501 43.9985 21.9998C43.9985 9.84942 34.1489 -0.000244141 21.9985 -0.000244141Z" fill="black"/>
<path d="M35.2584 12.7519C34.7887 12.3816 34.2286 11.8757 33.2079 11.7493C32.2504 11.6228 31.2749 12.2641 30.6155 12.6887C29.9561 13.1132 28.7095 14.3598 28.1946 14.7392C27.6798 15.1185 26.361 15.4708 24.2382 16.7445C22.1155 18.0181 13.7871 23.3656 13.7871 23.3656L15.955 23.3927L6.28978 28.3698H7.25631L5.86523 29.4267C5.86523 29.4267 7.09371 29.7519 8.12347 29.1015V29.3996C8.12347 29.3996 19.6314 24.8651 21.8535 26.0393L20.4986 26.4368C20.616 26.4368 22.802 26.5813 22.802 26.5813C22.855 27.034 23.0072 27.4694 23.2476 27.8566C23.488 28.2438 23.8108 28.5732 24.193 28.8215C25.5119 29.6886 25.539 30.1674 25.539 30.1674C25.539 30.1674 24.8525 30.4474 24.8525 30.7997C24.8525 30.7997 25.8641 30.4926 26.8036 30.5197C27.3998 30.5423 27.9911 30.6363 28.565 30.7997C28.565 30.7997 28.4927 30.4203 27.5804 30.1674C26.6681 29.9145 25.7648 28.9208 25.3222 28.3789C25.0511 28.0339 24.8744 27.6243 24.8094 27.1904C24.7445 26.7564 24.7936 26.3131 24.9518 25.9039C25.268 25.0819 26.37 24.6302 28.6463 23.4559C31.3291 22.0649 31.9433 21.0351 32.3227 20.2312C32.7021 19.4272 33.2621 17.8284 33.5783 17.0787C33.9757 16.1122 34.4635 15.5973 34.87 15.2902C35.2764 14.983 37.083 14.3056 37.083 14.3056C37.083 14.3056 35.701 13.1042 35.2584 12.7519Z" fill="white"/>
</g>
<defs>
<clipPath id="clip0_8658_11937">
<rect width="44" height="44" fill="white"/>
</clipPath>
</defs>
</svg>
