<svg width="44" height="44" viewBox="0 0 44 44" fill="none" xmlns="http://www.w3.org/2000/svg">
<g clip-path="url(#clip0_869_28395)">
<mask id="mask0_869_28395" style="mask-type:luminance" maskUnits="userSpaceOnUse" x="0" y="0" width="44" height="44">
<path d="M22 0C34.144 0 44 9.856 44 22C44 34.144 34.144 44 22 44C9.856 44 0 34.144 0 22C0 9.856 9.856 0 22 0Z" fill="white"/>
</mask>
<g mask="url(#mask0_869_28395)">
<path d="M0 0L44 44M44 0L0 44" stroke="black" stroke-miterlimit="22.9256"/>
</g>
<path d="M22 0C34.144 0 44 9.856 44 22C44 34.144 34.144 44 22 44C9.856 44 0 34.144 0 22C0 9.856 9.856 0 22 0Z" fill="url(#paint0_linear_869_28395)"/>
<mask id="mask1_869_28395" style="mask-type:luminance" maskUnits="userSpaceOnUse" x="10" y="20" width="24" height="19">
<path d="M21.9805 25.9073L12.1773 20.3105L11.9133 20.7153C8.90367 25.3441 9.57247 31.3985 13.5325 35.2881C18.1965 39.8641 25.7645 39.8641 30.4285 35.2881C34.3885 31.3985 35.0573 25.3441 32.0477 20.7153L31.7837 20.3105L21.9805 25.9073Z" fill="white"/>
</mask>
<g mask="url(#mask1_869_28395)">
<path d="M21.9817 39.0722C28.5817 39.0722 33.9321 33.7218 33.9321 27.1218C33.9321 20.5218 28.5817 15.1714 21.9817 15.1714C15.3816 15.1714 10.0312 20.5218 10.0312 27.1218C10.0312 33.7218 15.3816 39.0722 21.9817 39.0722Z" fill="url(#paint1_radial_869_28395)"/>
</g>
<path d="M21.9832 13.4111L13.5352 18.2335L21.9832 23.0559L30.4312 18.2335L21.9832 13.4111Z" fill="url(#paint2_radial_869_28395)"/>
<path d="M22.0005 14.6606L12.1797 20.3102L21.9829 25.907L31.7685 20.3102L22.0005 14.6606Z" fill="url(#paint3_radial_869_28395)"/>
<path d="M21.9832 5.27979L13.5352 18.2334L21.9832 23.0558V5.27979Z" fill="url(#paint4_linear_869_28395)"/>
<path d="M21.9805 23.0558L30.4285 18.2334L21.9805 5.27979V23.0558Z" fill="url(#paint5_linear_869_28395)"/>
</g>
<defs>
<linearGradient id="paint0_linear_869_28395" x1="22" y1="0" x2="22" y2="44" gradientUnits="userSpaceOnUse">
<stop stop-color="#F89791"/>
<stop offset="1" stop-color="#F7C882"/>
</linearGradient>
<radialGradient id="paint1_radial_869_28395" cx="0" cy="0" r="1" gradientUnits="userSpaceOnUse" gradientTransform="translate(21.9591 36.9032) rotate(-90.4664) scale(15.9592 19.0224)">
<stop stop-color="#C5C6AB"/>
<stop offset="1" stop-color="#7985AB"/>
</radialGradient>
<radialGradient id="paint2_radial_869_28395" cx="0" cy="0" r="1" gradientUnits="userSpaceOnUse" gradientTransform="translate(21.9832 18.2335) scale(0.4224)">
<stop stop-color="#0066FF" stop-opacity="0"/>
<stop offset="1" stop-color="#00C2FF" stop-opacity="0.4"/>
</radialGradient>
<radialGradient id="paint3_radial_869_28395" cx="0" cy="0" r="1" gradientUnits="userSpaceOnUse" gradientTransform="translate(21.9741 20.2838) scale(0.492941)">
<stop stop-color="#AEE6F9" stop-opacity="0.8588"/>
<stop offset="1" stop-color="#C8D6DC"/>
</radialGradient>
<linearGradient id="paint4_linear_869_28395" x1="17.7592" y1="4.39979" x2="17.7592" y2="21.9998" gradientUnits="userSpaceOnUse">
<stop stop-color="#77D4FF"/>
<stop offset="1" stop-color="#93D6F2" stop-opacity="0.898"/>
</linearGradient>
<linearGradient id="paint5_linear_869_28395" x1="26.2045" y1="4.39979" x2="26.2045" y2="21.9998" gradientUnits="userSpaceOnUse">
<stop stop-color="#506AAC"/>
<stop offset="1" stop-color="#96CFEF" stop-opacity="0.8196"/>
</linearGradient>
<clipPath id="clip0_869_28395">
<rect width="44" height="44" fill="white"/>
</clipPath>
</defs>
</svg>
