<svg width="44" height="44" viewBox="0 0 44 44" fill="none" xmlns="http://www.w3.org/2000/svg">
<g clip-path="url(#clip0_1643_12637)">
<path d="M22 44C34.1503 44 44 34.1503 44 22C44 9.84974 34.1503 0 22 0C9.84974 0 0 9.84974 0 22C0 34.1503 9.84974 44 22 44Z" fill="#172852"/>
<path d="M17.7211 9.83187C20.2973 8.86827 23.1969 8.86607 25.8215 9.65807C29.2381 10.7185 32.1223 13.2969 33.6293 16.5331C34.0451 17.4549 34.4433 18.4163 34.483 19.4415C32.5623 18.3283 30.4569 17.6067 28.3471 16.9489C24.9723 15.7323 21.4391 14.8875 18.2447 13.2155C17.5011 12.7711 16.5529 12.3157 16.3505 11.3895C16.2691 10.5887 17.1161 10.1421 17.7211 9.83187Z" fill="#FFD83D"/>
<path d="M9.94408 17.62C10.6899 15.596 11.9131 13.7172 13.5741 12.3246C13.9965 15.7984 15.4749 19.1556 17.9169 21.6812C20.8451 24.7238 25.0163 26.5916 29.2601 26.5212C30.9453 26.574 32.5931 26.1846 34.2365 25.87C32.6195 31.7132 26.2153 35.5918 20.2819 34.659C16.7003 34.2014 13.3937 32.0806 11.3983 29.0864C9.14768 25.7776 8.58008 21.3842 9.94408 17.62Z" fill="#FFD83D"/>
<path d="M28.347 16.9489C30.4568 17.6067 32.5622 18.3283 34.4828 19.4415L34.6126 19.5097C34.7908 20.8495 34.9206 22.2157 34.683 23.5577C33.7172 23.1485 32.934 22.4291 32.1156 21.7933C30.5404 20.4821 28.9322 18.9817 28.347 16.9489Z" fill="#FF6F03"/>
</g>
<defs>
<clipPath id="clip0_1643_12637">
<rect width="44" height="44" fill="white"/>
</clipPath>
</defs>
</svg>
