<svg width="44" height="44" viewBox="0 0 44 44" fill="none" xmlns="http://www.w3.org/2000/svg">
<g clip-path="url(#clip0_8658_11942)">
<path d="M22 44C34.1503 44 44 34.1503 44 22C44 9.84974 34.1503 0 22 0C9.84974 0 0 9.84974 0 22C0 34.1503 9.84974 44 22 44Z" fill="url(#paint0_linear_8658_11942)"/>
<path fill-rule="evenodd" clip-rule="evenodd" d="M15.5869 14.3V30.8H29.3369L15.5869 14.3Z" fill="url(#paint1_linear_8658_11942)"/>
<path fill-rule="evenodd" clip-rule="evenodd" d="M1.83691 30.8H15.5869V14.3L1.83691 30.8Z" fill="white"/>
<path fill-rule="evenodd" clip-rule="evenodd" d="M4.3999 35.2C5.6539 36.861 7.1389 38.3459 8.7999 39.5999H35.1999C36.8609 38.3459 38.3459 36.861 39.5999 35.2H4.3999Z" fill="#FC9965"/>
<path fill-rule="evenodd" clip-rule="evenodd" d="M8.80005 39.6C12.474 42.361 17.05 44 22 44C26.95 44 31.5261 42.361 35.2001 39.6H8.80005Z" fill="#FF2D55"/>
<path fill-rule="evenodd" clip-rule="evenodd" d="M29.5129 23.1V35.2H39.5999L29.5129 23.1Z" fill="url(#paint2_linear_8658_11942)"/>
<path fill-rule="evenodd" clip-rule="evenodd" d="M29.5129 30.8H1.83691C2.51891 32.373 3.38791 33.847 4.39991 35.2001H29.5239V30.8H29.5129V30.8Z" fill="#FFBC5B"/>
<path fill-rule="evenodd" clip-rule="evenodd" d="M19.437 35.2H29.513V23.1L19.437 35.2Z" fill="white"/>
<path d="M29.5129 19.8C32.5505 19.8 35.0129 17.3376 35.0129 14.3C35.0129 11.2625 32.5505 8.80005 29.5129 8.80005C26.4754 8.80005 24.0129 11.2625 24.0129 14.3C24.0129 17.3376 26.4754 19.8 29.5129 19.8Z" fill="#FFC95B"/>
<path d="M15.5869 11C17.1057 11 18.3369 9.76878 18.3369 8.25C18.3369 6.73122 17.1057 5.5 15.5869 5.5C14.0681 5.5 12.8369 6.73122 12.8369 8.25C12.8369 9.76878 14.0681 11 15.5869 11Z" fill="#FFC95B"/>
</g>
<defs>
<linearGradient id="paint0_linear_8658_11942" x1="37.5562" y1="6.4438" x2="6.4438" y2="37.5562" gradientUnits="userSpaceOnUse">
<stop stop-color="#FF2D55"/>
<stop offset="1" stop-color="#FFBC5B"/>
</linearGradient>
<linearGradient id="paint1_linear_8658_11942" x1="22.4572" y1="14.3" x2="22.4572" y2="30.8" gradientUnits="userSpaceOnUse">
<stop stop-color="#A524B3"/>
<stop offset="1" stop-color="#FF2D55"/>
</linearGradient>
<linearGradient id="paint2_linear_8658_11942" x1="34.553" y1="23.1" x2="34.553" y2="35.2" gradientUnits="userSpaceOnUse">
<stop stop-color="#A524B3"/>
<stop offset="1" stop-color="#FF2D55"/>
</linearGradient>
<clipPath id="clip0_8658_11942">
<rect width="44" height="44" fill="white"/>
</clipPath>
</defs>
</svg>
