<svg width="44" height="44" viewBox="0 0 44 44" fill="none" xmlns="http://www.w3.org/2000/svg">
<circle cx="22" cy="22" r="22" fill="#8247E5"/>
<path d="M28.435 17.5373C27.9994 17.2834 27.4394 17.2834 26.9416 17.5373L23.4568 19.6317L21.0921 20.9646L17.6696 23.059C17.234 23.3129 16.6739 23.3129 16.1761 23.059L13.5003 21.4088C13.0647 21.155 12.7536 20.6472 12.7536 20.076V16.9026C12.7536 16.3948 13.0025 15.8871 13.5003 15.5697L16.1761 13.983C16.6117 13.7291 17.1718 13.7291 17.6696 13.983L20.3454 15.6332C20.781 15.8871 21.0921 16.3948 21.0921 16.966V19.0605L23.4568 17.6642V15.5063C23.4568 14.9985 23.2079 14.4908 22.7101 14.1734L17.7318 11.1904C17.2962 10.9365 16.7362 10.9365 16.2384 11.1904L11.1357 14.2369C10.6378 14.4908 10.3889 14.9985 10.3889 15.5063V21.4723C10.3889 21.9801 10.6378 22.4878 11.1357 22.8051L16.1761 25.7882C16.6117 26.042 17.1718 26.042 17.6696 25.7882L21.0921 23.7572L23.4568 22.3609L26.8793 20.3299C27.3149 20.076 27.875 20.076 28.3728 20.3299L31.0486 21.9166C31.4842 22.1705 31.7954 22.6782 31.7954 23.2494V26.4228C31.7954 26.9306 31.5464 27.4383 31.0486 27.7557L28.435 29.3424C27.9994 29.5963 27.4394 29.5963 26.9416 29.3424L24.2658 27.7557C23.8302 27.5018 23.519 26.9941 23.519 26.4228V24.3919L21.1544 25.7882V27.8826C21.1544 28.3904 21.4033 28.8981 21.9011 29.2155L26.9416 32.1985C27.3772 32.4524 27.9372 32.4524 28.435 32.1985L33.4755 29.2155C33.9111 28.9616 34.2222 28.4538 34.2222 27.8826V21.8531C34.2222 21.3454 33.9733 20.8376 33.4755 20.5203L28.435 17.5373Z" fill="white"/>
</svg>
