<svg width="44" height="44" viewBox="0 0 44 44" fill="none" xmlns="http://www.w3.org/2000/svg">
<circle cx="22" cy="22" r="22" fill="#EEEEEE"/>
<path d="M14.0901 7.78079L22.2865 17.384L27.7881 14.1477C27.7881 14.1477 21.1505 5.27102 19.3804 5.89846C17.716 6.53251 14.0901 7.78079 14.0901 7.78079Z" fill="black"/>
<path d="M27.9985 14.1486C27.9985 14.1486 29.2468 11.9559 29.8677 9.03003C29.8677 9.03003 36.0958 11.5332 33.705 17.801L27.9985 14.1486Z" fill="black"/>
<path d="M33.7031 17.8078L34.2249 24.386L36.6092 24.0756C36.6092 24.0756 37.23 23.8642 37.1309 22.7216C37.0253 21.4667 36.8205 18.8579 36.8205 18.8579C36.8205 18.8579 36.9262 18.2305 35.4732 18.0257C33.7031 17.7021 33.7031 17.8078 33.7031 17.8078Z" fill="black"/>
<path d="M34.2202 24.3851L29.4451 28.2489L31.6246 32.5287C31.6246 32.5287 32.1464 34.1996 33.6985 32.3173C35.1515 30.435 35.7723 30.1246 35.6667 28.9754C35.5742 27.8262 35.2572 25.1116 34.2202 24.3851Z" fill="black"/>
<path d="M29.3442 28.2412L22.8055 25.3153L17.0991 36.9065C17.0991 36.9065 16.683 37.7387 18.1361 37.8443C19.5891 38.0557 21.9734 38.5775 23.2216 37.3226C24.4699 36.18 29.3442 28.2412 29.3442 28.2412Z" fill="black"/>
<path d="M22.804 25.216L22.1832 17.4885L8.06904 18.433C8.06904 18.433 7.23685 18.5387 7.34253 20.104C7.4482 22.191 7.65295 24.4895 7.65295 24.4895C7.65295 24.4895 7.54727 25.4273 9.41639 25.533C11.2855 25.6321 22.5993 25.6321 22.804 25.216Z" fill="black"/>
</svg>
