<svg width="44" height="44" viewBox="0 0 44 44" fill="none" xmlns="http://www.w3.org/2000/svg">
<g clip-path="url(#clip0_869_28390)">
<path d="M22 44C34.1503 44 44 34.1503 44 22C44 9.84974 34.1503 0 22 0C9.84974 0 0 9.84974 0 22C0 34.1503 9.84974 44 22 44Z" fill="#EEEEEE"/>
<path d="M12.98 13.4117L15.1305 12.1729L15.4357 12.672L23.4107 8.06575L22.8236 7.71787L22.2351 7.39337L21.9532 7.21875L8.9375 14.7386V15.0631L12.6748 12.9112L12.98 13.4117ZM12.98 18.1472L19.2362 14.5406L19.5181 15.0425L27.5165 10.4335L26.9308 10.0856L26.3436 9.76112L26.059 9.5865L8.9375 19.4507V19.7986L12.6748 17.6481L12.98 18.1472ZM12.98 20.515L21.2795 15.7162L21.5614 16.2154L29.5597 11.6091L28.974 11.2819L28.3828 10.9326L28.1022 10.7594L8.9375 21.8212V22.165L12.6748 19.9952L12.98 20.515ZM12.98 22.8635L23.386 16.8644L23.672 17.3676L31.603 12.782L31.0131 12.4534L30.4274 12.1096L30.1455 11.9542L8.9375 24.1904V24.5149L12.6748 22.3644L12.98 22.8635ZM12.98 25.2312L25.4292 18.04L25.7139 18.5625L33.6462 13.9782L33.055 13.629L32.494 13.3017L32.1887 13.1299L8.9375 26.5581V26.8826L12.6748 24.7321L12.98 25.2312ZM34.5331 14.4774L34.2306 14.3027L8.9375 28.9259V29.2504L12.6748 27.0999L12.98 27.599L25.4292 20.4077L25.7139 20.9082L34.9676 15.5856V14.7386L34.5331 14.4774ZM10.5463 30.6872L12.6321 29.491L12.936 29.9915L25.366 22.8002L25.6685 23.3186L34.969 17.93V16.258L10.2644 30.514L10.5463 30.6872ZM25.366 25.168L25.6685 25.6905L34.969 20.3005V18.6271L12.3062 31.7075L12.5868 31.8821L14.718 30.6432L15.0191 31.1424L25.366 25.168ZM14.6314 33.055L16.7819 31.8175L17.0624 32.34L25.3674 27.5357L25.6671 28.0349L34.969 22.6696V20.9756L14.3468 32.8817L14.6314 33.055ZM16.6953 34.2279L18.8251 33.0124L19.1056 33.5115L25.366 29.9035L25.6685 30.4026L34.969 25.0374V23.342L16.39 34.0766L16.6953 34.2279ZM18.4333 35.2495L18.7371 35.4241L20.8684 34.1839L21.1489 34.7064L25.366 32.2726L25.6685 32.7745L34.969 27.4051V25.7125L18.4333 35.2495ZM20.7804 36.5956L22.9116 35.3801L23.2127 35.8792L25.366 34.6197L25.6685 35.1422L34.969 29.7729V28.0789L20.4958 36.4457L20.7804 36.5956ZM25.4732 9.23862L24.8875 8.91412L24.3004 8.56488L23.9965 8.39163L8.9375 17.105V17.4295L12.6748 15.279L12.98 15.7781L17.193 13.3471L17.479 13.8462L25.4732 9.23862Z" fill="black"/>
</g>
<defs>
<clipPath id="clip0_869_28390">
<rect width="44" height="44" fill="white"/>
</clipPath>
</defs>
</svg>
