<svg width="44" height="44" viewBox="0 0 44 44" fill="none" xmlns="http://www.w3.org/2000/svg">
<g clip-path="url(#clip0_8658_11949)">
<path d="M22 44C34.1503 44 44 34.1503 44 22C44 9.84974 34.1503 0 22 0C9.84974 0 0 9.84974 0 22C0 34.1503 9.84974 44 22 44Z" fill="#EF0027"/>
<path d="M30.1565 13.6301L10.3125 9.97815L20.7556 36.2571L35.3072 18.5279L30.1565 13.6301ZM29.8375 15.2389L32.8735 18.125L24.5712 19.6279L29.8375 15.2389V15.2389ZM22.7672 19.3268L14.0168 12.0695L28.3195 14.7013L22.7672 19.3268V19.3268ZM22.1444 20.611L20.7171 32.4085L13.024 13.0444L22.1444 20.6096V20.611ZM23.4644 21.2366L32.659 19.5729L22.1127 32.4195L23.4644 21.2366Z" fill="white"/>
</g>
<defs>
<clipPath id="clip0_8658_11949">
<rect width="44" height="44" fill="white"/>
</clipPath>
</defs>
</svg>
