<svg width="44" height="44" viewBox="0 0 44 44" fill="none" xmlns="http://www.w3.org/2000/svg">
<g clip-path="url(#clip0_8658_11951)">
<path d="M43.9945 21.9978C43.9945 34.1465 34.1469 43.9955 21.9974 43.9955C9.84788 43.9955 0.000244141 34.1465 0.000244141 21.9978C0.000244141 9.84916 9.84812 0 21.9974 0C34.1466 0 43.9945 9.84823 43.9945 21.9978Z" fill="white"/>
<path d="M21.9975 0C9.85233 0 -0.0127575 9.8631 0.0027037 21.9971C0.00574909 24.4248 0.392866 26.76 1.11943 28.9444H7.70076V10.4393L21.9975 24.7359L36.2935 10.4393V28.9447H42.8763C43.6039 26.7605 43.989 24.4252 43.9933 21.9975C44.0141 9.8508 34.1439 0.00292827 21.9975 0.00292827V0Z" fill="#F26822"/>
<path d="M18.7098 28.0225L12.4706 21.783V33.4274H7.70043L3.19922 33.4282C7.0602 39.7626 14.0379 43.9999 21.9976 43.9999C29.9574 43.9999 36.9354 39.7617 40.7971 33.4273H31.5233V21.783L25.2837 28.0225L21.9969 31.3093L18.71 28.0225H18.7098Z" fill="#4D4D4D"/>
</g>
<defs>
<clipPath id="clip0_8658_11951">
<rect width="43.9953" height="44" fill="white"/>
</clipPath>
</defs>
</svg>
