<svg width="45" height="44" viewBox="0 0 45 44" fill="none" xmlns="http://www.w3.org/2000/svg">
<g clip-path="url(#clip0_8658_11952)">
<path d="M22.9954 44C35.1456 44 44.9954 34.1503 44.9954 22C44.9954 9.84974 35.1456 0 22.9954 0C10.8451 0 0.995361 9.84974 0.995361 22C0.995361 34.1503 10.8451 44 22.9954 44Z" fill="#23292F"/>
<path d="M32.7166 11H36.6904L28.4197 19.1909C26.9737 20.6155 25.0253 21.4141 22.9954 21.4141C20.9654 21.4141 19.017 20.6155 17.571 19.1909L9.29349 11H13.2741L19.5579 17.2191C20.4729 18.1223 21.7069 18.6287 22.9926 18.6287C24.2783 18.6287 25.5123 18.1223 26.4274 17.2191L32.7166 11ZM13.226 33.7741H9.24536L17.571 25.5337C19.017 24.1091 20.9654 23.3105 22.9954 23.3105C25.0253 23.3105 26.9737 24.1091 28.4197 25.5337L36.7454 33.7728H32.7647L26.4329 27.5C25.5178 26.5968 24.2838 26.0904 22.9981 26.0904C21.7124 26.0904 20.4784 26.5968 19.5634 27.5L13.2246 33.7741H13.226Z" fill="white"/>
</g>
<defs>
<clipPath id="clip0_8658_11952">
<rect width="44" height="44" fill="white" transform="translate(0.995361)"/>
</clipPath>
</defs>
</svg>
