<svg width="45" height="44" viewBox="0 0 45 44" fill="none" xmlns="http://www.w3.org/2000/svg">
<g clip-path="url(#clip0_8658_11953)">
<path d="M22.9954 44C35.1456 44 44.9954 34.1503 44.9954 22C44.9954 9.84974 35.1456 0 22.9954 0C10.8451 0 0.995361 9.84974 0.995361 22C0.995361 34.1503 10.8451 44 22.9954 44Z" fill="#49C1BF"/>
<path d="M13.3704 10.0114L28.6521 17.413L32.564 15.6502L17.3455 8.25L13.3704 10.0114Z" fill="white" fill-opacity="0.304"/>
<path d="M28.6521 17.3954L32.5644 15.6334V19.5728L28.6521 21.3348V17.3954ZM28.6521 35.6612V23.3718L32.5644 21.5909V33.8992L28.6521 35.6612Z" fill="white" fill-opacity="0.646"/>
<path d="M13.3704 10.0155V13.9989L23.9482 19.1373L13.3704 24.376V28.303L28.6521 35.6909V31.7391L18.2736 26.6915L28.6521 21.3551V17.4158L13.3704 10.0155Z" fill="white"/>
</g>
<defs>
<clipPath id="clip0_8658_11953">
<rect width="44" height="44" fill="white" transform="translate(0.995361)"/>
</clipPath>
</defs>
</svg>
