<svg width="44" height="44" viewBox="0 0 44 44" fill="none" xmlns="http://www.w3.org/2000/svg">
<path d="M22 44C34.1503 44 44 34.1503 44 22C44 9.84974 34.1503 0 22 0C9.84974 0 0 9.84974 0 22C0 34.1503 9.84974 44 22 44Z" fill="black"/>
<path d="M15.3943 31.8085L18.4595 26.5243L21.5246 21.2574L24.5725 15.9733L25.0733 15.1358L25.2978 15.9733L26.2303 19.4529L25.1855 21.2574L22.1204 26.5243L19.0725 31.8085H22.7334L25.7985 26.5243L27.3872 23.7873L28.1384 26.5243L29.5544 31.8085H32.8441L31.4281 26.5243L30.0034 21.2574L29.6321 19.9019L31.9116 15.9733H28.5874L28.4752 15.5848L27.3182 11.2676L27.1714 10.7064H23.9767L23.899 10.8187L20.9116 15.9733L17.8464 21.2574L14.7985 26.5243L11.7334 31.8085H15.3943Z" fill="white"/>
</svg>
