<svg width="44" height="44" viewBox="0 0 44 44" fill="none" xmlns="http://www.w3.org/2000/svg">
<circle cx="22" cy="22" r="22" fill="#2E3148"/>
<path d="M21.9179 8.55554C20.2583 8.55554 18.9127 14.5748 18.9127 22C18.9127 29.4252 20.2583 35.4444 21.9179 35.4444C23.5774 35.4444 24.9231 29.4252 24.9231 22C24.9231 14.5748 23.5774 8.55554 21.9179 8.55554ZM22.1253 34.6857C21.9356 34.9388 21.7458 34.7489 21.7458 34.7489C20.9815 33.8634 20.5994 32.2182 20.5994 32.2182C19.2626 27.9161 19.5808 18.6789 19.5808 18.6789C20.209 11.3456 21.3518 9.61328 21.7408 9.22868C21.7805 9.18943 21.8328 9.16544 21.8884 9.16094C21.9441 9.15644 21.9995 9.17172 22.045 9.20408C22.6093 9.60393 23.0826 11.2761 23.0826 11.2761C24.4802 16.4641 24.3536 21.3357 24.3536 21.3357C24.4802 25.5746 23.6533 30.3197 23.6533 30.3197C23.0168 33.9258 22.1253 34.6857 22.1253 34.6857Z" fill="white"/>
<path d="M33.5794 15.3092C32.7531 13.8693 26.8629 15.6977 20.4192 19.3926C13.9755 23.0875 9.43018 27.2505 10.2558 28.6899C11.0815 30.1292 16.9723 28.3014 23.416 24.6065C29.8597 20.9116 34.4051 16.7486 33.5794 15.3092ZM11.0181 28.4923C10.7018 28.4525 10.7733 28.1925 10.7733 28.1925C11.1613 27.0891 12.3961 25.9389 12.3961 25.9389C15.4639 22.6383 23.6351 18.3176 23.6351 18.3176C30.3079 15.2131 32.3806 15.3441 32.9064 15.4888C32.9604 15.5039 33.0073 15.5376 33.0388 15.5839C33.0703 15.6302 33.0844 15.6862 33.0786 15.7419C33.0154 16.4307 31.7974 17.6729 31.7974 17.6729C27.9954 21.4683 23.7065 23.7833 23.7065 23.7833C20.0927 26.0033 15.5653 27.6464 15.5653 27.6464C12.1204 28.8878 11.0183 28.4923 11.0183 28.4923H11.0181Z" fill="white"/>
<path d="M33.5503 28.7379C34.3829 27.3018 29.849 23.1198 23.428 19.397C17.0069 15.6743 11.1174 13.8232 10.2855 15.2619C9.45355 16.7005 13.9867 20.8801 20.4115 24.6028C26.8362 28.3256 32.7183 30.1767 33.5503 28.7379ZM10.8372 15.8168C10.7142 15.5252 10.9739 15.455 10.9739 15.455C12.1234 15.2379 13.738 15.7326 13.738 15.7326C18.1307 16.7329 25.9635 21.6393 25.9635 21.6393C31.9942 25.8593 32.9191 27.7181 33.0577 28.2457C33.0718 28.2998 33.0663 28.3572 33.0422 28.4077C33.0181 28.4582 32.977 28.4985 32.9261 28.5216C32.2972 28.8095 30.613 28.3805 30.613 28.3805C25.4218 26.9886 21.2702 24.4384 21.2702 24.4384C17.5399 22.4265 13.8514 19.3307 13.8514 19.3307C11.0486 16.9709 10.8381 15.82 10.8381 15.82L10.8372 15.8168Z" fill="white"/>
<path d="M21.8863 23.5498C22.7598 23.5498 23.4679 22.8417 23.4679 21.9682C23.4679 21.0946 22.7598 20.3865 21.8863 20.3865C21.0127 20.3865 20.3046 21.0946 20.3046 21.9682C20.3046 22.8417 21.0127 23.5498 21.8863 23.5498Z" fill="white"/>
<path d="M28.3712 16.8436C28.8778 16.8436 29.2886 16.4187 29.2886 15.8946C29.2886 15.3704 28.8778 14.9456 28.3712 14.9456C27.8645 14.9456 27.4538 15.3704 27.4538 15.8946C27.4538 16.4187 27.8645 16.8436 28.3712 16.8436Z" fill="white"/>
<path d="M13.3134 20.0703C13.8201 20.0703 14.2308 19.6454 14.2308 19.1213C14.2308 18.5971 13.8201 18.1722 13.3134 18.1722C12.8068 18.1722 12.396 18.5971 12.396 19.1213C12.396 19.6454 12.8068 20.0703 13.3134 20.0703Z" fill="white"/>
<path d="M20.0198 31.7115C20.5265 31.7115 20.9373 31.2866 20.9373 30.7625C20.9373 30.2384 20.5265 29.8135 20.0198 29.8135C19.5132 29.8135 19.1024 30.2384 19.1024 30.7625C19.1024 31.2866 19.5132 31.7115 20.0198 31.7115Z" fill="white"/>
</svg>
