<svg width="44" height="44" viewBox="0 0 44 44" fill="none" xmlns="http://www.w3.org/2000/svg">
<g clip-path="url(#clip0_8658_11926)">
<path d="M44 22C44 26.3512 42.7097 30.6047 40.2923 34.2225C37.8749 37.8404 34.439 40.6602 30.419 42.3254C26.3991 43.9905 21.9756 44.4262 17.708 43.5773C13.4404 42.7284 9.52042 40.6331 6.44366 37.5564C3.36691 34.4796 1.27161 30.5596 0.422734 26.292C-0.426141 22.0244 0.00953216 17.6009 1.67466 13.581C3.33979 9.56099 6.15958 6.12506 9.77746 3.70767C13.3953 1.29028 17.6488 0 22 0C27.8348 0 33.4306 2.31785 37.5564 6.44365C41.6822 10.5695 44 16.1652 44 22V22Z" fill="#F7931A"/>
<path fill-rule="evenodd" clip-rule="evenodd" d="M15.6361 10.046L20.6921 11.4L21.8221 7.18799L24.3501 7.87399L23.2641 11.912L25.3261 12.466L26.4141 8.38399L28.9861 9.07199L27.8781 13.176C27.8781 13.176 32.0781 14.106 33.0661 17.522C34.0541 20.938 30.8941 22.732 29.9181 22.8C29.9181 22.8 33.5981 24.818 32.3341 28.788C31.0701 32.758 27.1901 33.468 23.1081 32.558L22.0001 36.814L19.4281 36.126L20.5581 31.936L18.5181 31.38L17.3881 35.6L14.8361 34.914L15.9681 30.714L10.7781 29.314L12.0861 26.41C12.0861 26.41 13.5501 26.81 14.1041 26.942C14.6581 27.074 15.0141 26.498 15.1701 25.922C15.3261 25.346 17.6761 15.8 17.8981 15.014C18.1201 14.228 18.0301 13.614 17.0981 13.372C16.1661 13.13 14.8981 12.752 14.8981 12.752L15.6361 10.046ZM20.7361 22.688L19.3361 28.254C19.3361 28.254 26.2781 30.76 27.1661 27.234C28.0541 23.708 20.7361 22.688 20.7361 22.688ZM21.3801 20.048L22.7541 14.948C22.7541 14.948 28.6981 16.012 27.9661 18.85C27.2341 21.688 23.7301 20.6 21.3801 20.048Z" fill="white"/>
</g>
<defs>
<clipPath id="clip0_8658_11926">
<rect width="44" height="44" fill="white"/>
</clipPath>
</defs>
</svg>
