<svg width="44" height="44" viewBox="0 0 44 44" fill="none" xmlns="http://www.w3.org/2000/svg">
<g clip-path="url(#clip0_8658_11927)">
<path d="M44 22C44 26.3512 42.7097 30.6047 40.2923 34.2225C37.8749 37.8404 34.439 40.6602 30.419 42.3254C26.3991 43.9905 21.9756 44.4262 17.708 43.5773C13.4404 42.7284 9.52042 40.6331 6.44366 37.5564C3.36691 34.4796 1.27161 30.5596 0.422734 26.292C-0.426141 22.0244 0.00953216 17.6009 1.67466 13.581C3.33979 9.56099 6.15958 6.12506 9.77746 3.70767C13.3953 1.29028 17.6488 0 22 0C27.8348 0 33.4306 2.31785 37.5564 6.44365C41.6822 10.5695 44 16.1652 44 22V22Z" fill="#CD0124"/>
<path d="M27.0445 22.112C27.0228 22.111 27.0019 22.1086 26.9792 22.1086C26.6567 22.1086 26.354 22.2007 26.0969 22.3576L23.2343 20.38L30.3008 15.4435L27.0445 22.112ZM20.8785 20.3853L18.0628 22.3522C17.8076 22.1988 17.5088 22.1086 17.1884 22.1086C17.1592 22.1086 17.1305 22.1115 17.1018 22.113L13.7446 15.4587L20.8785 20.3853ZM25.7328 24.9064L21.9374 33.3095L18.4075 24.9378C18.6974 24.6378 18.8764 24.2309 18.8764 23.7819C18.8764 23.6671 18.8645 23.5554 18.8422 23.4455L22.0585 21.2001L25.3243 23.4543C25.3036 23.5612 25.2918 23.67 25.2918 23.7819C25.2917 24.2162 25.4599 24.6104 25.7328 24.9064ZM29.9141 14.0762L22.0536 19.5651L14.1056 14.0762H29.9141ZM32.0438 11.7333C31.3523 11.7333 30.7578 12.1471 30.4977 12.7374H13.5017C13.2411 12.1471 12.6471 11.7333 11.9551 11.7333C11.0224 11.7333 10.2666 12.4829 10.2666 13.407C10.2666 14.3312 11.0224 15.0803 11.9551 15.0803C11.9843 15.0803 12.0126 15.0773 12.0412 15.0764L15.8921 22.7101C15.6477 23.0003 15.5004 23.3749 15.5004 23.7819C15.5004 24.6966 16.2412 25.4399 17.1612 25.4536L20.6965 33.8389C20.4062 34.1389 20.2271 34.5449 20.2271 34.9939C20.2271 35.9176 20.9829 36.6666 21.9152 36.6666C22.8475 36.6666 23.6042 35.9176 23.6042 34.9939C23.6042 34.5606 23.436 34.1663 23.1629 33.8693L26.9633 25.4545C26.9694 25.4556 26.9753 25.4556 26.9792 25.4556C27.912 25.4556 28.6687 24.7064 28.6687 23.7819C28.6687 23.3671 28.5144 22.9866 28.2612 22.6944L31.9785 15.0773C32.0002 15.0778 32.0219 15.0803 32.0438 15.0803C32.9766 15.0803 33.7333 14.3312 33.7333 13.407C33.7333 12.4829 32.9766 11.7333 32.0438 11.7333Z" fill="white"/>
</g>
<defs>
<clipPath id="clip0_8658_11927">
<rect width="44" height="44" fill="white"/>
</clipPath>
</defs>
</svg>
