<svg width="44" height="44" viewBox="0 0 44 44" fill="none" xmlns="http://www.w3.org/2000/svg">
<g clip-path="url(#clip0_8658_11928)">
<circle cx="22" cy="22" r="22" fill="#008DE3"/>
<path d="M26.2617 10.2667H15.7389L14.8662 15.1425L24.3643 15.1537C29.043 15.1537 30.4224 16.8541 30.383 19.6692C30.3605 21.1105 29.7356 23.554 29.4653 24.3479C28.7446 26.4592 27.2639 28.8633 21.7125 28.8576L12.479 28.852L11.6091 33.7334H22.1095C25.8141 33.7334 27.3849 33.2999 29.0571 32.5342C32.7562 30.8169 34.9576 27.1686 35.8415 22.4054C37.1505 15.3114 35.5178 10.2667 26.2617 10.2667Z" fill="white"/>
<path d="M11.2012 19.552C8.4424 19.552 8.04829 21.348 7.7893 22.4347C7.44586 23.8535 7.33325 24.4334 7.33325 24.4334H18.1095C20.8682 24.4334 21.2624 22.6374 21.5214 21.5507C21.8648 20.1319 21.9774 19.552 21.9774 19.552H11.2012Z" fill="white"/>
</g>
<defs>
<clipPath id="clip0_8658_11928">
<rect width="44" height="44" fill="white"/>
</clipPath>
</defs>
</svg>
