<svg width="44" height="44" viewBox="0 0 44 44" fill="none" xmlns="http://www.w3.org/2000/svg">
<g clip-path="url(#clip0_8658_11931)">
<path d="M22.0155 44.0311C34.1744 44.0311 44.0311 34.1744 44.0311 22.0155C44.0311 9.85669 34.1744 0 22.0155 0C9.85669 0 0 9.85669 0 22.0155C0 34.1744 9.85669 44.0311 22.0155 44.0311Z" fill="#7866D5"/>
<path d="M30.9273 11.3028C31.6725 11.3959 32.4488 11.458 33.1941 11.5822C34.6535 11.8617 35.1503 12.6069 34.9019 14.0974C34.8398 14.6563 34.4051 15.0911 33.8462 15.1842C33.5046 15.2463 33.132 15.2774 32.7904 15.2463C27.9464 15.2463 23.1334 15.2774 18.2893 15.2774C17.5752 15.2774 16.8299 15.3395 16.1157 15.4637C13.7248 15.8363 12.7932 16.83 12.6069 19.252C12.5138 20.3698 12.5138 20.3698 13.6627 20.3698H32.9146C33.1009 20.3698 33.2872 20.3698 33.4735 20.3698C33.7841 20.3698 34.0635 20.463 34.343 20.6182C35.2124 21.1772 34.9951 22.0777 34.964 22.885C34.933 23.5371 34.5293 23.9097 33.8462 24.0339C33.5667 24.096 33.2872 24.096 32.9767 24.096C26.3938 24.096 19.8109 24.096 13.2279 24.096C12.5138 24.096 12.5138 24.096 12.5759 24.8102C12.6069 25.4623 12.669 26.1144 12.8243 26.7664C13.1348 27.9464 13.849 28.6916 15.06 29.0332C16.3641 29.4058 17.7304 29.4679 19.0656 29.499C23.7544 29.499 28.4742 29.499 33.1941 29.499C33.7841 29.499 34.343 29.5611 34.7156 30.12C35.3056 31.0515 34.9951 32.2626 34.0635 32.8525C33.9393 32.9457 33.8151 33.0078 33.6598 33.0388C32.6351 33.3804 31.5794 33.4425 30.4926 33.4736C26.0522 33.5667 21.6429 33.5667 17.2336 33.4736C15.8673 33.4425 14.5011 33.2873 13.1658 33.0078C10.0296 32.3557 8.44601 30.741 7.91814 27.5738C7.79393 26.8596 7.73183 26.1144 7.63867 25.3691V19.5935C7.70077 19.0346 7.76288 18.4446 7.82498 17.8857C8.22865 14.3148 9.84333 12.5448 13.3522 11.7375C14.5942 11.458 15.8984 11.3959 17.1404 11.2717L30.9273 11.3028Z" fill="white"/>
<path d="M23.8477 34.0946C21.6119 34.0946 19.4073 34.0635 17.2026 34.0325C15.8053 34.0014 14.408 33.8461 13.0417 33.5356C9.65711 32.8214 7.91823 31.0205 7.3593 27.6669C7.26614 27.139 7.20404 26.6111 7.17299 26.1143C7.14194 25.897 7.11089 25.6796 7.07983 25.4312V25.3691V19.5314L7.14194 18.9725C7.17299 18.5688 7.23509 18.1962 7.26614 17.8236C7.70086 14.0042 9.50185 12.048 13.2591 11.2096C14.2527 10.9922 15.2153 10.8991 16.1779 10.8059C16.4884 10.7749 16.799 10.7438 17.1095 10.7128H17.1716H30.9895H31.0206C31.2379 10.7438 31.4863 10.7749 31.7037 10.7749C32.2316 10.837 32.7594 10.868 33.3184 10.9922C35.0883 11.3338 35.7714 12.3274 35.4609 14.1284C35.3678 14.9047 34.7467 15.5568 33.9083 15.681C33.5357 15.7431 33.1631 15.7742 32.7594 15.7742C27.9465 15.8052 23.1024 15.8363 18.2894 15.8363C17.6063 15.8363 16.8921 15.8984 16.209 16.0226C14.0664 16.3641 13.3522 17.1404 13.1659 19.314C13.1659 19.5003 13.1349 19.6867 13.1349 19.8419C13.2591 19.8419 13.4764 19.8419 13.6628 19.8419H33.4736C33.8773 19.8419 34.281 19.9661 34.6225 20.1524C35.6783 20.8356 35.5851 21.8603 35.523 22.6055C35.523 22.6987 35.492 22.8229 35.492 22.916C35.4299 23.7855 34.902 24.3754 33.9394 24.5617C33.5978 24.6238 33.2873 24.6238 32.9768 24.6238H13.2591C13.228 24.6238 13.1659 24.6238 13.1349 24.6238C13.1349 24.6549 13.1349 24.686 13.1349 24.717V24.7481C13.1659 25.4001 13.228 26.0212 13.3833 26.6422C13.6317 27.6048 14.2217 28.1948 15.2153 28.4742C16.5505 28.8469 17.9168 28.909 19.0968 28.909C22.7609 28.94 26.487 28.94 30.1201 28.94H33.2252C33.691 28.94 34.6536 28.94 35.2125 29.8405C35.5851 30.4305 35.6783 31.1136 35.523 31.7657C35.3678 32.4178 34.9641 32.9767 34.3741 33.3493C34.2189 33.4425 34.0325 33.5356 33.8462 33.5977C32.6973 33.9704 31.5174 34.0325 30.5237 34.0635C28.3191 34.0635 26.0834 34.0946 23.8477 34.0946ZM8.19769 25.338C8.22874 25.5554 8.25979 25.7728 8.25979 25.9901C8.3219 26.4869 8.384 26.9838 8.4461 27.4806C8.94293 30.3994 10.3402 31.8278 13.2591 32.4488C14.5632 32.7283 15.8985 32.8836 17.2337 32.9146C21.6119 33.0078 26.0834 33.0078 30.4927 32.9146C31.3932 32.8836 32.48 32.8214 33.4736 32.5109C33.5668 32.4799 33.6599 32.4178 33.7531 32.3867C34.0636 32.1694 34.312 31.8589 34.4052 31.4862C34.4983 31.1136 34.4362 30.741 34.2189 30.3994C34.0325 30.12 33.7841 30.0268 33.1942 30.0268H30.089C26.487 30.0268 22.7298 30.0268 19.0657 29.9958C17.8237 29.9958 16.3642 29.9337 14.9048 29.4989C13.5075 29.1263 12.6381 28.2258 12.2965 26.8285C12.1412 26.1454 12.0481 25.4312 12.0481 24.7481V24.717C12.017 24.2823 11.986 23.9718 12.2344 23.6923C12.4828 23.4128 12.8244 23.4128 13.2591 23.4128H33.0079C33.2563 23.4128 33.5357 23.4128 33.7841 23.3507C34.281 23.2576 34.4052 23.0402 34.4362 22.7297C34.4362 22.6055 34.4673 22.5123 34.4673 22.3881C34.5294 21.6119 34.5294 21.2392 34.0947 20.9598C33.9394 20.8666 33.722 20.8045 33.5357 20.8045H13.6628C12.9796 20.8045 12.576 20.8045 12.2654 20.494C11.9549 20.1835 12.017 19.7488 12.0481 19.0967C12.2654 16.4262 13.3833 15.2152 16.0227 14.8116C16.7679 14.6874 17.5131 14.6253 18.2894 14.5942C23.1335 14.5942 27.9465 14.5632 32.7905 14.5632C33.1321 14.5632 33.4426 14.5632 33.7531 14.5011C34.0636 14.47 34.312 14.2216 34.3431 13.9111C34.5604 12.669 34.2499 12.2653 33.07 12.0169C32.5731 11.9238 32.0763 11.8617 31.5795 11.8306C31.3621 11.7996 31.1137 11.7685 30.8963 11.7685H17.1716C16.8611 11.7996 16.5505 11.8306 16.24 11.8617C15.2774 11.9548 14.3769 12.0169 13.4454 12.2343C10.185 13.0416 8.75662 14.6253 8.384 17.9788C8.35295 18.3514 8.29084 18.7241 8.25979 19.1277L8.19769 19.6556V25.338Z" fill="white"/>
</g>
<defs>
<clipPath id="clip0_8658_11931">
<rect width="44" height="44" fill="white"/>
</clipPath>
</defs>
</svg>
