<svg width="44" height="44" viewBox="0 0 44 44" fill="none" xmlns="http://www.w3.org/2000/svg">
<circle cx="22" cy="22" r="22" fill="#EEEEEE"/>
<path d="M28.2678 12.6631L23.9277 19.1111C23.6276 19.5502 24.2048 20.0818 24.6203 19.712L28.8911 15.9911C29.0065 15.8986 29.1681 15.968 29.1681 16.1298V27.7546C29.1681 27.9164 28.9604 27.9858 28.868 27.8702L15.9402 12.3858C15.5246 11.8773 14.9244 11.6 14.2549 11.6H13.7932C12.5928 11.6 11.6001 12.5938 11.6001 13.8186V30.1813C11.6001 31.4062 12.5928 32.4 13.8163 32.4C14.5781 32.4 15.2938 32.0071 15.7093 31.3369L20.0494 24.8889C20.3495 24.4498 19.7724 23.9182 19.3568 24.288L15.086 27.9858C14.9706 28.0782 14.809 28.0089 14.809 27.8471V16.2453C14.809 16.0835 15.0167 16.0142 15.1091 16.1298L28.0369 31.6142C28.4525 32.1226 29.0758 32.4 29.7222 32.4H30.1839C31.4074 32.4 32.4001 31.4062 32.4001 30.1813V13.8186C32.4001 12.5938 31.4074 11.6 30.1839 11.6C29.399 11.6 28.6833 11.9929 28.2678 12.6631Z" fill="black"/>
</svg>
