<svg width="44" height="44" viewBox="0 0 44 44" fill="none" xmlns="http://www.w3.org/2000/svg">
<g clip-path="url(#clip0_869_28391)">
<path d="M22 44C34.1503 44 44 34.1503 44 22C44 9.84974 34.1503 0 22 0C9.84974 0 0 9.84974 0 22C0 34.1503 9.84974 44 22 44Z" fill="url(#paint0_linear_869_28391)"/>
<path d="M28.7042 31.8561C26.9618 31.8561 25.5538 30.4481 25.5538 28.7057V22.8977C28.4226 22.6689 30.4994 22.0705 31.8546 21.0673V28.7057C31.8546 30.4481 30.4466 31.8561 28.7042 31.8561ZM25.5538 15.2945C25.5538 13.5521 26.9618 12.1441 28.7042 12.1441C30.4466 12.1441 31.8546 13.5521 31.8546 15.2945V17.1953C31.8194 17.8641 31.6786 18.5505 31.0978 19.1489C30.4114 19.8353 28.8802 20.6273 25.5714 20.9089V15.2945H25.5538ZM18.4434 28.7057C18.4434 30.4481 17.0354 31.8561 15.293 31.8561C13.5506 31.8561 12.1426 30.4481 12.1426 28.7057V26.9457C12.1778 26.2945 12.3362 25.5905 12.9698 24.9569C13.6914 24.2353 15.205 23.4257 18.4434 23.1089V28.7057ZM15.293 12.1441C17.0354 12.1441 18.4434 13.5521 18.4434 15.2945V21.1201C15.5922 21.3665 13.5154 22.0177 12.1426 23.0737V15.2945C12.1426 13.5521 13.5506 12.1441 15.293 12.1441ZM33.8082 16.4209V16.0865V15.2945C33.8082 12.4609 31.5202 10.1729 28.6866 10.1729C25.8706 10.1729 23.565 12.4785 23.565 15.2945V20.9969C23.0722 21.0145 20.9074 20.9969 20.397 21.0145V15.2945C20.397 12.4609 18.109 10.1729 15.2754 10.1729C12.4594 10.1729 10.1538 12.4785 10.1538 15.2945V26.8401C10.1362 27.1569 10.1362 27.4385 10.1538 27.6673V27.9313V28.7233C10.1538 31.5569 12.4418 33.8449 15.2754 33.8449C18.0914 33.8449 20.397 31.5393 20.397 28.7233V23.0209C20.9074 23.0033 23.0546 23.0209 23.565 23.0033V28.7233C23.565 31.5569 25.853 33.8449 28.6866 33.8449C31.5026 33.8449 33.8082 31.5393 33.8082 28.7233V17.3361C33.8258 17.0017 33.8258 16.7025 33.8082 16.4385V16.4209Z" fill="white"/>
</g>
<defs>
<linearGradient id="paint0_linear_869_28391" x1="3.06268" y1="40.8851" x2="41.3427" y2="2.71068" gradientUnits="userSpaceOnUse">
<stop stop-color="#00AEE9"/>
<stop offset="1" stop-color="#69FABD"/>
</linearGradient>
<clipPath id="clip0_869_28391">
<rect width="44" height="44" fill="white"/>
</clipPath>
</defs>
</svg>
