<svg width="44" height="44" viewBox="0 0 44 44" fill="none" xmlns="http://www.w3.org/2000/svg">
<circle cx="22" cy="22" r="22" fill="black"/>
<path d="M32.8867 27.3281L29.255 31.1646C29.176 31.2479 29.0805 31.3144 28.9743 31.3598C28.8682 31.4052 28.7537 31.4286 28.638 31.4286H11.4216C11.3395 31.4286 11.2591 31.4049 11.1904 31.3605C11.1217 31.3162 11.0677 31.253 11.0349 31.1788C11.0022 31.1046 10.9922 31.0226 11.0061 30.9428C11.02 30.8631 11.0573 30.7891 11.1134 30.7299L14.7479 26.8934C14.8266 26.8103 14.9218 26.744 15.0276 26.6986C15.1334 26.6532 15.2476 26.6297 15.363 26.6295H32.5784C32.6605 26.6295 32.7409 26.6531 32.8096 26.6975C32.8782 26.7418 32.9323 26.805 32.9652 26.8792C32.9978 26.9535 33.0078 27.0354 32.9939 27.1152C32.98 27.1949 32.9427 27.2689 32.8867 27.3281ZM29.255 19.6025C29.176 19.5191 29.0805 19.4527 28.9743 19.4073C28.8682 19.3619 28.7537 19.3385 28.638 19.3385H11.4216C11.3395 19.3385 11.2591 19.3622 11.1904 19.4066C11.1217 19.4509 11.0677 19.5141 11.0349 19.5883C11.0022 19.6625 10.9922 19.7445 11.0061 19.8243C11.02 19.904 11.0573 19.978 11.1134 20.0372L14.7479 23.8737C14.8266 23.9568 14.9218 24.0231 15.0276 24.0685C15.1334 24.1139 15.2476 24.1374 15.363 24.1376H32.5784C32.6605 24.1376 32.7409 24.114 32.8096 24.0696C32.8782 24.0252 32.9323 23.9621 32.9652 23.8879C32.9978 23.8136 33.0078 23.7316 32.9939 23.6519C32.98 23.5722 32.9427 23.4982 32.8867 23.439L29.255 19.6025ZM11.4216 16.8467H28.638C28.7537 16.8467 28.8682 16.8234 28.9743 16.7779C29.0805 16.7325 29.176 16.6661 29.255 16.5827L32.8867 12.7462C32.9427 12.6871 32.98 12.6131 32.9939 12.5333C33.0078 12.4536 32.9978 12.3716 32.9652 12.2974C32.9323 12.2232 32.8782 12.16 32.8096 12.1156C32.7409 12.0712 32.6605 12.0476 32.5784 12.0476H15.363C15.2476 12.0478 15.1334 12.0713 15.0276 12.1167C14.9218 12.1621 14.8266 12.2284 14.7479 12.3116L11.1143 16.1481C11.0583 16.2072 11.021 16.2811 11.0071 16.3607C10.9931 16.4404 11.0031 16.5223 11.0357 16.5965C11.0683 16.6707 11.1222 16.7339 11.1908 16.7783C11.2593 16.8227 11.3396 16.8465 11.4216 16.8467Z" fill="url(#paint0_linear_8658_11947)"/>
<defs>
<linearGradient id="paint0_linear_8658_11947" x1="12.8571" y1="31.8905" x2="30.6064" y2="11.5771" gradientUnits="userSpaceOnUse">
<stop offset="0.08" stop-color="#9945FF"/>
<stop offset="0.3" stop-color="#8752F3"/>
<stop offset="0.5" stop-color="#5497D5"/>
<stop offset="0.6" stop-color="#43B4CA"/>
<stop offset="0.72" stop-color="#28E0B9"/>
<stop offset="0.97" stop-color="#19FB9B"/>
</linearGradient>
</defs>
</svg>
