<svg width="44" height="44" viewBox="0 0 44 44" fill="none" xmlns="http://www.w3.org/2000/svg">
<g clip-path="url(#clip0_869_28386)">
<circle cx="22" cy="22" r="22" fill="#EEEEEE"/>
<path d="M12.8198 9.34326L36.9998 25.8533L31.0198 34.6933L6.83984 18.0533L12.8198 9.34326Z" fill="url(#paint0_linear_869_28386)"/>
<path d="M37.001 25.8535C34.921 28.8435 27.901 27.6735 21.271 22.9935C14.511 18.4435 10.871 12.3335 12.821 9.34351C14.901 6.35351 21.921 7.52351 28.551 12.2035C35.311 16.6235 38.951 22.8635 37.001 25.8535Z" fill="url(#paint1_linear_869_28386)"/>
<path d="M31.0212 34.5631C28.9412 37.5531 21.9212 36.3831 15.2912 31.7031C8.66117 27.0231 4.89117 21.0431 6.97117 17.9231C9.05117 14.9331 16.0712 16.1031 22.7012 20.7831C29.3312 25.4631 32.9712 31.5731 31.0212 34.5631Z" fill="url(#paint2_linear_869_28386)"/>
<path d="M37.0023 25.8536L31.0223 34.6936C28.9423 37.6836 21.9223 36.3836 15.2923 31.8336C13.9923 30.9236 12.8223 30.0136 11.6523 28.9736C12.5623 28.8436 13.7323 28.3236 14.9023 27.0236C16.9823 24.8136 18.0223 24.2936 18.9323 24.4236C19.8423 24.4236 20.8823 25.3336 22.5723 27.5436C24.2623 29.7536 26.6023 30.4036 28.0323 29.2336C28.1623 29.1036 28.2923 29.1036 28.4223 28.9736C29.5923 28.0636 29.9823 27.6736 32.1923 23.5136C32.7123 22.4736 34.5323 20.7836 37.0023 21.5636C37.6523 23.2536 37.6523 24.6836 37.0023 25.8536Z" fill="#0E0F23"/>
<path fill-rule="evenodd" clip-rule="evenodd" d="M36.0909 25.3331C34.2709 27.9331 27.9009 26.6331 21.7909 22.3431C15.5509 18.0531 11.9109 12.5931 13.7309 9.99306C15.5509 7.39306 21.9209 8.69306 28.0309 12.9831C34.1409 17.2731 37.7809 22.7331 36.0909 25.3331ZM30.3709 21.4331C29.4609 22.7331 26.3409 22.0831 23.2209 20.0031C20.2309 17.9231 18.4109 15.1931 19.3209 13.8931C20.2309 12.5931 23.3509 13.2431 26.4709 15.3231C29.4609 17.4031 31.2809 20.1331 30.3709 21.4331Z" fill="#EEEEEE"/>
<path d="M12.3013 12.3338C12.3013 12.2038 12.1713 12.0738 12.0413 12.2038C11.9113 12.3338 11.7812 12.3337 11.7812 12.4638C11.9113 12.8538 12.0413 13.1138 12.0413 13.3738C12.0413 13.5038 12.1713 13.6338 12.3013 13.5038C12.4313 13.5038 12.5613 13.3738 12.4313 13.2438C12.4313 12.9838 12.4313 12.7238 12.3013 12.3338Z" fill="#EEEEEE"/>
<path d="M12.9525 14.4133C12.9525 14.2833 12.8225 14.1533 12.6925 14.2833C12.5625 14.4133 12.5625 14.4133 12.5625 14.5433C13.9925 17.7933 16.9825 21.3033 20.8825 23.9033C21.0125 24.0333 21.1425 23.9033 21.2725 23.9033C21.4025 23.7733 21.2725 23.6433 21.2725 23.5133C17.2425 20.9133 14.3825 17.5333 12.9525 14.4133Z" fill="#EEEEEE"/>
<path d="M28.6819 27.1533C28.5519 27.1533 28.4219 27.1533 28.4219 27.2833C28.4219 27.4133 28.4219 27.5433 28.5519 27.5433C28.9419 27.6733 29.4619 27.8033 29.8519 27.9333C29.9819 27.9333 30.1119 27.9333 30.1119 27.8033C30.1119 27.6733 30.1119 27.5433 29.9819 27.5433C29.5919 27.4133 29.0719 27.2833 28.6819 27.1533Z" fill="#EEEEEE"/>
<path d="M31.0217 27.6738C30.8917 27.6738 30.7617 27.8038 30.7617 27.9338C30.7617 28.0638 30.8917 28.1938 31.0217 28.1938C32.0617 28.3238 33.2317 28.4538 34.1417 28.3238C34.2717 28.3238 34.4017 28.1938 34.4017 28.0638C34.4017 27.9338 34.2717 27.8038 34.1417 27.8038C33.1017 27.9338 32.0617 27.8038 31.0217 27.6738Z" fill="#EEEEEE"/>
</g>
<defs>
<linearGradient id="paint0_linear_869_28386" x1="17.5573" y1="6.99585" x2="22.3525" y2="23.4619" gradientUnits="userSpaceOnUse">
<stop stop-color="#03B8FF"/>
<stop offset="1" stop-color="#FA52A0"/>
</linearGradient>
<linearGradient id="paint1_linear_869_28386" x1="21.5073" y1="5.84599" x2="26.3026" y2="22.3122" gradientUnits="userSpaceOnUse">
<stop stop-color="#03B8FF"/>
<stop offset="1" stop-color="#FA52A0"/>
</linearGradient>
<linearGradient id="paint2_linear_869_28386" x1="13.622" y1="8.14203" x2="18.4173" y2="24.6082" gradientUnits="userSpaceOnUse">
<stop stop-color="#03B8FF"/>
<stop offset="1" stop-color="#FA52A0"/>
</linearGradient>
<clipPath id="clip0_869_28386">
<rect width="44" height="44" fill="white"/>
</clipPath>
</defs>
</svg>
