<svg width="44" height="44" viewBox="0 0 44 44" fill="none" xmlns="http://www.w3.org/2000/svg">
<path d="M22 44C34.1503 44 44 34.1503 44 22C44 9.84974 34.1503 0 22 0C9.84974 0 0 9.84974 0 22C0 34.1503 9.84974 44 22 44Z" fill="#17BDFF"/>
<path d="M20.6326 34.1437L10.0003 12.4877C9.82756 12.1422 10.0873 11.7333 10.4702 11.7333H14.1543C14.3519 11.7333 14.5371 11.8451 14.6241 12.0179L22.3889 27.7289C23.0812 29.1384 25.0836 29.1384 25.7759 27.7289L33.5158 12.0303C33.6028 11.8576 33.788 11.7457 33.9856 11.7457H34.443C34.7152 11.7457 34.888 12.0303 34.765 12.2653L24.0209 34.1437C23.3285 35.552 21.3249 35.552 20.6326 34.1437V34.1437Z" fill="white"/>
<path opacity="0.1" d="M20.6342 34.1421L14.6258 12.0287C14.5388 11.8435 14.3411 11.744 14.1808 11.744H10.4843C10.0766 11.744 9.84165 12.1517 10.002 12.4985L20.6342 34.1421Z" fill="white"/>
<path opacity="0.1" d="M22.3918 27.74L10.0033 12.4877C9.85537 12.1298 10.0779 11.7706 10.4234 11.7333H14.1697C14.3797 11.7457 14.5401 11.8812 14.6146 12.0179L22.3918 27.74Z" fill="white"/>
</svg>
